<svg id="visual" viewBox="0 0 675 900" width="675" height="900" xmlns="http://www.w3.org/2000/svg" xmlns:xlink="http://www.w3.org/1999/xlink" version="1.1"><rect x="0" y="0" width="675" height="900" fill="#001220"></rect><defs><linearGradient id="grad1_0" x1="0%" y1="0%" x2="100%" y2="100%"><stop offset="30%" stop-color="#001220" stop-opacity="1"></stop><stop offset="70%" stop-color="#001220" stop-opacity="1"></stop></linearGradient></defs><defs><linearGradient id="grad2_0" x1="0%" y1="0%" x2="100%" y2="100%"><stop offset="30%" stop-color="#001220" stop-opacity="1"></stop><stop offset="70%" stop-color="#001220" stop-opacity="1"></stop></linearGradient></defs><g transform="translate(675, 0)"><path d="M0 478.1C-29.2 434.1 -58.4 390.1 -84.3 369.5C-110.3 348.9 -132.9 351.9 -175.3 364C-217.7 376.1 -279.9 397.5 -298.1 373.8C-316.3 350.2 -290.6 281.5 -312.7 249.4C-334.9 217.3 -404.9 221.8 -409 197C-413.2 172.2 -351.4 118 -351.9 80.3C-352.5 42.6 -415.3 21.3 -478.1 0L0 0Z" fill="#FBAE3C"></path></g><g transform="translate(0, 900)"><path d="M0 -478.1C30.1 -444.2 60.2 -410.4 90.3 -395.8C120.4 -381.3 150.5 -386.1 184 -382C217.4 -377.9 254.2 -364.9 267.5 -335.4C280.8 -306 270.6 -260.1 301.8 -240.7C333 -221.2 405.6 -228.2 430.8 -207.5C456 -186.7 433.8 -138.2 433.8 -99C433.8 -59.8 456 -29.9 478.1 0L0 0Z" fill="#FBAE3C"></path></g></svg>