<svg id="visual" viewBox="0 0 675 900" width="675" height="900" xmlns="http://www.w3.org/2000/svg" xmlns:xlink="http://www.w3.org/1999/xlink" version="1.1"><rect x="0" y="0" width="675" height="900" fill="#001220"></rect><defs><linearGradient id="grad1_0" x1="0%" y1="100%" x2="100%" y2="0%"><stop offset="30%" stop-color="#001220" stop-opacity="1"></stop><stop offset="70%" stop-color="#001220" stop-opacity="1"></stop></linearGradient></defs><defs><linearGradient id="grad2_0" x1="0%" y1="100%" x2="100%" y2="0%"><stop offset="30%" stop-color="#001220" stop-opacity="1"></stop><stop offset="70%" stop-color="#001220" stop-opacity="1"></stop></linearGradient></defs><g transform="translate(675, 900)"><path d="M-478.1 0C-428.7 -27.1 -379.3 -54.2 -360.7 -82.3C-342.2 -110.5 -354.5 -139.6 -359.5 -173.1C-364.5 -206.6 -362.1 -244.5 -352.6 -281.2C-343.1 -317.9 -326.6 -353.4 -298.1 -373.8C-269.6 -394.2 -229.3 -399.4 -193.5 -401.8C-157.7 -404.3 -126.5 -404 -95 -416.3C-63.5 -428.6 -31.8 -453.3 0 -478.1L0 0Z" fill="#FFFFFF"></path></g><g transform="translate(0, 0)"><path d="M478.1 0C479 38 479.9 75.9 462.1 105.5C444.3 135 407.8 156.1 394.6 190C381.5 223.9 391.6 270.6 373.8 298.1C356 325.6 310.2 333.8 273.7 343.2C237.3 352.6 210.2 363.1 184 382C157.7 400.9 132.2 428.1 101.7 445.5C71.2 463 35.6 470.5 0 478.1L0 0Z" fill="#FFFFFF"></path></g></svg>