<svg xmlns="http://www.w3.org/2000/svg" version="1.1" xmlns:xlink="http://www.w3.org/1999/xlink" xmlns:svgjs="http://svgjs.com/svgjs" width="1440" height="870" preserveAspectRatio="none" viewBox="0 0 1440 870"><g mask="url(&quot;#SvgjsMask2607&quot;)" fill="none"><rect width="1440" height="870" x="0" y="0" fill="#0e2a47"></rect><path d="M-98.09 520.36L-98.09 520.36" stroke="#132e65" stroke-width="1.5"></path><path d="M-98.09 520.36L-100.72 681.31" stroke="#132e65" stroke-width="1.5"></path><path d="M-98.09 520.36L45.88 689.63" stroke="#132e65" stroke-width="1.5"></path><path d="M-98.09 520.36L-105.59 836.7" stroke="#132e65" stroke-width="1.5"></path><path d="M-98.09 520.36L197 652.03" stroke="#132e65" stroke-width="1.5"></path><path d="M-98.09 520.36L59.13 806.4" stroke="#132e65" stroke-width="1.5"></path><path d="M-98.09 520.36L203.05 856.79" stroke="#132e65" stroke-width="1.5"></path><path d="M-100.72 681.31L-100.72 681.31" stroke="#132e65" stroke-width="1.5"></path><path d="M-100.72 681.31L45.88 689.63" stroke="#132e65" stroke-width="1.5"></path><path d="M-105.59 836.7L-105.59 836.7" stroke="#132e65" stroke-width="1.5"></path><path d="M-105.59 836.7L-79.45 976.18" stroke="#132e65" stroke-width="1.5"></path><path d="M-105.59 836.7L-100.72 681.31" stroke="#132e65" stroke-width="1.5"></path><path d="M-79.45 976.18L-79.45 976.18" stroke="#132e65" stroke-width="1.5"></path><path d="M-79.45 976.18L59.13 806.4" stroke="#132e65" stroke-width="1.5"></path><path d="M-79.45 976.18L-100.72 681.31" stroke="#132e65" stroke-width="1.5"></path><path d="M45.88 689.63L45.88 689.63" stroke="#132e65" stroke-width="1.5"></path><path d="M45.88 689.63L59.13 806.4" stroke="#132e65" stroke-width="1.5"></path><path d="M45.88 689.63L197 652.03" stroke="#132e65" stroke-width="1.5"></path><path d="M59.13 806.4L59.13 806.4" stroke="#132e65" stroke-width="1.5"></path><path d="M59.13 806.4L203.05 856.79" stroke="#132e65" stroke-width="1.5"></path><path d="M59.13 806.4L-105.59 836.7" stroke="#132e65" stroke-width="1.5"></path><path d="M59.13 806.4L-100.72 681.31" stroke="#132e65" stroke-width="1.5"></path><path d="M59.13 806.4L197 652.03" stroke="#132e65" stroke-width="1.5"></path><path d="M197 652.03L197 652.03" stroke="#132e65" stroke-width="1.5"></path><path d="M197 652.03L203.05 856.79" stroke="#132e65" stroke-width="1.5"></path><path d="M197 652.03L351.5 792.13" stroke="#132e65" stroke-width="1.5"></path><path d="M203.05 856.79L203.05 856.79" stroke="#132e65" stroke-width="1.5"></path><path d="M203.05 856.79L242.04 1005.12" stroke="#132e65" stroke-width="1.5"></path><path d="M203.05 856.79L351.5 792.13" stroke="#132e65" stroke-width="1.5"></path><path d="M203.05 856.79L382.82 953.05" stroke="#132e65" stroke-width="1.5"></path><path d="M203.05 856.79L45.88 689.63" stroke="#132e65" stroke-width="1.5"></path><path d="M242.04 1005.12L242.04 1005.12" stroke="#132e65" stroke-width="1.5"></path><path d="M242.04 1005.12L382.82 953.05" stroke="#132e65" stroke-width="1.5"></path><path d="M242.04 1005.12L351.5 792.13" stroke="#132e65" stroke-width="1.5"></path><path d="M242.04 1005.12L59.13 806.4" stroke="#132e65" stroke-width="1.5"></path><path d="M242.04 1005.12L545.66 963.61" stroke="#132e65" stroke-width="1.5"></path><path d="M242.04 1005.12L-79.45 976.18" stroke="#132e65" stroke-width="1.5"></path><path d="M351.5 792.13L351.5 792.13" stroke="#132e65" stroke-width="1.5"></path><path d="M351.5 792.13L382.82 953.05" stroke="#132e65" stroke-width="1.5"></path><path d="M351.5 792.13L551.79 691.79" stroke="#132e65" stroke-width="1.5"></path><path d="M382.82 953.05L382.82 953.05" stroke="#132e65" stroke-width="1.5"></path><path d="M382.82 953.05L545.66 963.61" stroke="#132e65" stroke-width="1.5"></path><path d="M382.82 953.05L643.4 976.2" stroke="#132e65" stroke-width="1.5"></path><path d="M552.37 522.53L552.37 522.53" stroke="#132e65" stroke-width="1.5"></path><path d="M552.37 522.53L638.45 515.51" stroke="#132e65" stroke-width="1.5"></path><path d="M552.37 522.53L665.95 404.88" stroke="#132e65" stroke-width="1.5"></path><path d="M552.37 522.53L551.79 691.79" stroke="#132e65" stroke-width="1.5"></path><path d="M552.37 522.53L690.71 693.17" stroke="#132e65" stroke-width="1.5"></path><path d="M551.79 691.79L551.79 691.79" stroke="#132e65" stroke-width="1.5"></path><path d="M551.79 691.79L690.71 693.17" stroke="#132e65" stroke-width="1.5"></path><path d="M551.79 691.79L692.22 796.61" stroke="#132e65" stroke-width="1.5"></path><path d="M551.79 691.79L638.45 515.51" stroke="#132e65" stroke-width="1.5"></path><path d="M551.79 691.79L545.66 963.61" stroke="#132e65" stroke-width="1.5"></path><path d="M545.66 963.61L545.66 963.61" stroke="#132e65" stroke-width="1.5"></path><path d="M545.66 963.61L643.4 976.2" stroke="#132e65" stroke-width="1.5"></path><path d="M545.66 963.61L692.22 796.61" stroke="#132e65" stroke-width="1.5"></path><path d="M665.95 404.88L665.95 404.88" stroke="#132e65" stroke-width="1.5"></path><path d="M665.95 404.88L638.45 515.51" stroke="#132e65" stroke-width="1.5"></path><path d="M638.45 515.51L638.45 515.51" stroke="#132e65" stroke-width="1.5"></path><path d="M638.45 515.51L791.46 539.45" stroke="#132e65" stroke-width="1.5"></path><path d="M638.45 515.51L690.71 693.17" stroke="#132e65" stroke-width="1.5"></path><path d="M690.71 693.17L690.71 693.17" stroke="#132e65" stroke-width="1.5"></path><path d="M690.71 693.17L692.22 796.61" stroke="#132e65" stroke-width="1.5"></path><path d="M690.71 693.17L832.2 667.26" stroke="#132e65" stroke-width="1.5"></path><path d="M690.71 693.17L820.46 802.95" stroke="#132e65" stroke-width="1.5"></path><path d="M692.22 796.61L692.22 796.61" stroke="#132e65" stroke-width="1.5"></path><path d="M692.22 796.61L820.46 802.95" stroke="#132e65" stroke-width="1.5"></path><path d="M643.4 976.2L643.4 976.2" stroke="#132e65" stroke-width="1.5"></path><path d="M643.4 976.2L692.22 796.61" stroke="#132e65" stroke-width="1.5"></path><path d="M643.4 976.2L845.95 960.64" stroke="#132e65" stroke-width="1.5"></path><path d="M643.4 976.2L820.46 802.95" stroke="#132e65" stroke-width="1.5"></path><path d="M643.4 976.2L690.71 693.17" stroke="#132e65" stroke-width="1.5"></path><path d="M794.33 255.96L794.33 255.96" stroke="#132e65" stroke-width="1.5"></path><path d="M794.33 255.96L836.97 359.96" stroke="#132e65" stroke-width="1.5"></path><path d="M794.33 255.96L969.27 214.02" stroke="#132e65" stroke-width="1.5"></path><path d="M794.33 255.96L665.95 404.88" stroke="#132e65" stroke-width="1.5"></path><path d="M836.97 359.96L836.97 359.96" stroke="#132e65" stroke-width="1.5"></path><path d="M836.97 359.96L1003.83 373.39" stroke="#132e65" stroke-width="1.5"></path><path d="M836.97 359.96L665.95 404.88" stroke="#132e65" stroke-width="1.5"></path><path d="M791.46 539.45L791.46 539.45" stroke="#132e65" stroke-width="1.5"></path><path d="M791.46 539.45L832.2 667.26" stroke="#132e65" stroke-width="1.5"></path><path d="M832.2 667.26L832.2 667.26" stroke="#132e65" stroke-width="1.5"></path><path d="M832.2 667.26L942.53 682.32" stroke="#132e65" stroke-width="1.5"></path><path d="M832.2 667.26L820.46 802.95" stroke="#132e65" stroke-width="1.5"></path><path d="M820.46 802.95L820.46 802.95" stroke="#132e65" stroke-width="1.5"></path><path d="M820.46 802.95L966.89 833.45" stroke="#132e65" stroke-width="1.5"></path><path d="M820.46 802.95L845.95 960.64" stroke="#132e65" stroke-width="1.5"></path><path d="M820.46 802.95L942.53 682.32" stroke="#132e65" stroke-width="1.5"></path><path d="M845.95 960.64L845.95 960.64" stroke="#132e65" stroke-width="1.5"></path><path d="M845.95 960.64L966.89 833.45" stroke="#132e65" stroke-width="1.5"></path><path d="M967.83 -50.84L967.83 -50.84" stroke="#132e65" stroke-width="1.5"></path><path d="M967.83 -50.84L1003.44 49.12" stroke="#132e65" stroke-width="1.5"></path><path d="M967.83 -50.84L1102.59 -55.46" stroke="#132e65" stroke-width="1.5"></path><path d="M1003.44 49.12L1003.44 49.12" stroke="#132e65" stroke-width="1.5"></path><path d="M1003.44 49.12L1102.59 -55.46" stroke="#132e65" stroke-width="1.5"></path><path d="M1003.44 49.12L1142 110.4" stroke="#132e65" stroke-width="1.5"></path><path d="M1003.44 49.12L969.27 214.02" stroke="#132e65" stroke-width="1.5"></path><path d="M969.27 214.02L969.27 214.02" stroke="#132e65" stroke-width="1.5"></path><path d="M969.27 214.02L1090.9 222.89" stroke="#132e65" stroke-width="1.5"></path><path d="M969.27 214.02L1003.83 373.39" stroke="#132e65" stroke-width="1.5"></path><path d="M969.27 214.02L836.97 359.96" stroke="#132e65" stroke-width="1.5"></path><path d="M969.27 214.02L1142 110.4" stroke="#132e65" stroke-width="1.5"></path><path d="M1003.83 373.39L1003.83 373.39" stroke="#132e65" stroke-width="1.5"></path><path d="M1003.83 373.39L998.43 500.73" stroke="#132e65" stroke-width="1.5"></path><path d="M1003.83 373.39L1090.9 222.89" stroke="#132e65" stroke-width="1.5"></path><path d="M1003.83 373.39L1159.87 538.08" stroke="#132e65" stroke-width="1.5"></path><path d="M1003.83 373.39L794.33 255.96" stroke="#132e65" stroke-width="1.5"></path><path d="M998.43 500.73L998.43 500.73" stroke="#132e65" stroke-width="1.5"></path><path d="M998.43 500.73L1159.87 538.08" stroke="#132e65" stroke-width="1.5"></path><path d="M998.43 500.73L1093.88 643.2" stroke="#132e65" stroke-width="1.5"></path><path d="M998.43 500.73L942.53 682.32" stroke="#132e65" stroke-width="1.5"></path><path d="M998.43 500.73L791.46 539.45" stroke="#132e65" stroke-width="1.5"></path><path d="M998.43 500.73L836.97 359.96" stroke="#132e65" stroke-width="1.5"></path><path d="M942.53 682.32L942.53 682.32" stroke="#132e65" stroke-width="1.5"></path><path d="M942.53 682.32L966.89 833.45" stroke="#132e65" stroke-width="1.5"></path><path d="M966.89 833.45L966.89 833.45" stroke="#132e65" stroke-width="1.5"></path><path d="M1102.59 -55.46L1102.59 -55.46" stroke="#132e65" stroke-width="1.5"></path><path d="M1102.59 -55.46L1142 110.4" stroke="#132e65" stroke-width="1.5"></path><path d="M1102.59 -55.46L1277.58 -39.32" stroke="#132e65" stroke-width="1.5"></path><path d="M1102.59 -55.46L1252.83 66.18" stroke="#132e65" stroke-width="1.5"></path><path d="M1102.59 -55.46L1090.9 222.89" stroke="#132e65" stroke-width="1.5"></path><path d="M1142 110.4L1142 110.4" stroke="#132e65" stroke-width="1.5"></path><path d="M1142 110.4L1252.83 66.18" stroke="#132e65" stroke-width="1.5"></path><path d="M1142 110.4L1090.9 222.89" stroke="#132e65" stroke-width="1.5"></path><path d="M1142 110.4L1242.48 214.32" stroke="#132e65" stroke-width="1.5"></path><path d="M1090.9 222.89L1090.9 222.89" stroke="#132e65" stroke-width="1.5"></path><path d="M1090.9 222.89L1242.48 214.32" stroke="#132e65" stroke-width="1.5"></path><path d="M1090.9 222.89L1003.44 49.12" stroke="#132e65" stroke-width="1.5"></path><path d="M1090.9 222.89L1251.92 364.48" stroke="#132e65" stroke-width="1.5"></path><path d="M1159.87 538.08L1159.87 538.08" stroke="#132e65" stroke-width="1.5"></path><path d="M1159.87 538.08L1244.48 499.31" stroke="#132e65" stroke-width="1.5"></path><path d="M1159.87 538.08L1093.88 643.2" stroke="#132e65" stroke-width="1.5"></path><path d="M1159.87 538.08L1251.92 364.48" stroke="#132e65" stroke-width="1.5"></path><path d="M1159.87 538.08L1304.95 708.69" stroke="#132e65" stroke-width="1.5"></path><path d="M1093.88 643.2L1093.88 643.2" stroke="#132e65" stroke-width="1.5"></path><path d="M1093.88 643.2L942.53 682.32" stroke="#132e65" stroke-width="1.5"></path><path d="M1093.88 643.2L1244.48 499.31" stroke="#132e65" stroke-width="1.5"></path><path d="M1093.88 643.2L1304.95 708.69" stroke="#132e65" stroke-width="1.5"></path><path d="M1144.05 1011.99L1144.05 1011.99" stroke="#132e65" stroke-width="1.5"></path><path d="M1144.05 1011.99L1309.19 949.86" stroke="#132e65" stroke-width="1.5"></path><path d="M1144.05 1011.99L1276.96 830.2" stroke="#132e65" stroke-width="1.5"></path><path d="M1277.58 -39.32L1277.58 -39.32" stroke="#132e65" stroke-width="1.5"></path><path d="M1277.58 -39.32L1252.83 66.18" stroke="#132e65" stroke-width="1.5"></path><path d="M1277.58 -39.32L1401.87 -109.85" stroke="#132e65" stroke-width="1.5"></path><path d="M1252.83 66.18L1252.83 66.18" stroke="#132e65" stroke-width="1.5"></path><path d="M1242.48 214.32L1242.48 214.32" stroke="#132e65" stroke-width="1.5"></path><path d="M1251.92 364.48L1251.92 364.48" stroke="#132e65" stroke-width="1.5"></path><path d="M1251.92 364.48L1244.48 499.31" stroke="#132e65" stroke-width="1.5"></path><path d="M1251.92 364.48L1242.48 214.32" stroke="#132e65" stroke-width="1.5"></path><path d="M1251.92 364.48L1402.81 364.81" stroke="#132e65" stroke-width="1.5"></path><path d="M1244.48 499.31L1244.48 499.31" stroke="#132e65" stroke-width="1.5"></path><path d="M1244.48 499.31L1402.81 364.81" stroke="#132e65" stroke-width="1.5"></path><path d="M1304.95 708.69L1304.95 708.69" stroke="#132e65" stroke-width="1.5"></path><path d="M1304.95 708.69L1409.2 644.65" stroke="#132e65" stroke-width="1.5"></path><path d="M1304.95 708.69L1276.96 830.2" stroke="#132e65" stroke-width="1.5"></path><path d="M1276.96 830.2L1276.96 830.2" stroke="#132e65" stroke-width="1.5"></path><path d="M1276.96 830.2L1309.19 949.86" stroke="#132e65" stroke-width="1.5"></path><path d="M1309.19 949.86L1309.19 949.86" stroke="#132e65" stroke-width="1.5"></path><path d="M1309.19 949.86L1392.31 973.26" stroke="#132e65" stroke-width="1.5"></path><path d="M1309.19 949.86L1423.45 802.35" stroke="#132e65" stroke-width="1.5"></path><path d="M1309.19 949.86L1304.95 708.69" stroke="#132e65" stroke-width="1.5"></path><path d="M1309.19 949.86L1586.99 986.34" stroke="#132e65" stroke-width="1.5"></path><path d="M1401.87 -109.85L1401.87 -109.85" stroke="#132e65" stroke-width="1.5"></path><path d="M1401.87 -109.85L1570.6 -96.85" stroke="#132e65" stroke-width="1.5"></path><path d="M1401.87 -109.85L1435.45 76.48" stroke="#132e65" stroke-width="1.5"></path><path d="M1401.87 -109.85L1252.83 66.18" stroke="#132e65" stroke-width="1.5"></path><path d="M1401.87 -109.85L1575.64 99.44" stroke="#132e65" stroke-width="1.5"></path><path d="M1401.87 -109.85L1102.59 -55.46" stroke="#132e65" stroke-width="1.5"></path><path d="M1435.45 76.48L1435.45 76.48" stroke="#132e65" stroke-width="1.5"></path><path d="M1435.45 76.48L1575.64 99.44" stroke="#132e65" stroke-width="1.5"></path><path d="M1435.45 76.48L1400.42 214.94" stroke="#132e65" stroke-width="1.5"></path><path d="M1435.45 76.48L1541.79 205.35" stroke="#132e65" stroke-width="1.5"></path><path d="M1435.45 76.48L1252.83 66.18" stroke="#132e65" stroke-width="1.5"></path><path d="M1400.42 214.94L1400.42 214.94" stroke="#132e65" stroke-width="1.5"></path><path d="M1400.42 214.94L1541.79 205.35" stroke="#132e65" stroke-width="1.5"></path><path d="M1402.81 364.81L1402.81 364.81" stroke="#132e65" stroke-width="1.5"></path><path d="M1402.81 364.81L1545.02 384.52" stroke="#132e65" stroke-width="1.5"></path><path d="M1402.81 364.81L1458.26 499.42" stroke="#132e65" stroke-width="1.5"></path><path d="M1458.26 499.42L1458.26 499.42" stroke="#132e65" stroke-width="1.5"></path><path d="M1458.26 499.42L1557.63 530.88" stroke="#132e65" stroke-width="1.5"></path><path d="M1458.26 499.42L1545.02 384.52" stroke="#132e65" stroke-width="1.5"></path><path d="M1458.26 499.42L1409.2 644.65" stroke="#132e65" stroke-width="1.5"></path><path d="M1458.26 499.42L1244.48 499.31" stroke="#132e65" stroke-width="1.5"></path><path d="M1409.2 644.65L1409.2 644.65" stroke="#132e65" stroke-width="1.5"></path><path d="M1409.2 644.65L1423.45 802.35" stroke="#132e65" stroke-width="1.5"></path><path d="M1409.2 644.65L1557.63 530.88" stroke="#132e65" stroke-width="1.5"></path><path d="M1409.2 644.65L1599.08 665.38" stroke="#132e65" stroke-width="1.5"></path><path d="M1409.2 644.65L1244.48 499.31" stroke="#132e65" stroke-width="1.5"></path><path d="M1423.45 802.35L1423.45 802.35" stroke="#132e65" stroke-width="1.5"></path><path d="M1423.45 802.35L1276.96 830.2" stroke="#132e65" stroke-width="1.5"></path><path d="M1423.45 802.35L1304.95 708.69" stroke="#132e65" stroke-width="1.5"></path><path d="M1423.45 802.35L1392.31 973.26" stroke="#132e65" stroke-width="1.5"></path><path d="M1423.45 802.35L1599.08 665.38" stroke="#132e65" stroke-width="1.5"></path><path d="M1392.31 973.26L1392.31 973.26" stroke="#132e65" stroke-width="1.5"></path><path d="M1570.6 -96.85L1570.6 -96.85" stroke="#132e65" stroke-width="1.5"></path><path d="M1570.6 -96.85L1575.64 99.44" stroke="#132e65" stroke-width="1.5"></path><path d="M1570.6 -96.85L1435.45 76.48" stroke="#132e65" stroke-width="1.5"></path><path d="M1575.64 99.44L1575.64 99.44" stroke="#132e65" stroke-width="1.5"></path><path d="M1575.64 99.44L1541.79 205.35" stroke="#132e65" stroke-width="1.5"></path><path d="M1541.79 205.35L1541.79 205.35" stroke="#132e65" stroke-width="1.5"></path><path d="M1541.79 205.35L1545.02 384.52" stroke="#132e65" stroke-width="1.5"></path><path d="M1545.02 384.52L1545.02 384.52" stroke="#132e65" stroke-width="1.5"></path><path d="M1545.02 384.52L1557.63 530.88" stroke="#132e65" stroke-width="1.5"></path><path d="M1557.63 530.88L1557.63 530.88" stroke="#132e65" stroke-width="1.5"></path><path d="M1557.63 530.88L1599.08 665.38" stroke="#132e65" stroke-width="1.5"></path><path d="M1557.63 530.88L1402.81 364.81" stroke="#132e65" stroke-width="1.5"></path><path d="M1557.63 530.88L1423.45 802.35" stroke="#132e65" stroke-width="1.5"></path><path d="M1599.08 665.38L1599.08 665.38" stroke="#132e65" stroke-width="1.5"></path><path d="M1586.99 986.34L1586.99 986.34" stroke="#132e65" stroke-width="1.5"></path><path d="M1586.99 986.34L1392.31 973.26" stroke="#132e65" stroke-width="1.5"></path><circle r="5" cx="-98.09" cy="520.36" fill="#132e65"></circle><circle r="5" cx="-100.72" cy="681.31" fill="#132e65"></circle><circle r="5" cx="-105.59" cy="836.7" fill="#132e65"></circle><circle r="5" cx="-79.45" cy="976.18" fill="#132e65"></circle><circle r="5" cx="45.88" cy="689.63" fill="#132e65"></circle><circle r="5" cx="59.13" cy="806.4" fill="#132e65"></circle><circle r="5" cx="197" cy="652.03" fill="#132e65"></circle><circle r="5" cx="203.05" cy="856.79" fill="#132e65"></circle><circle r="5" cx="242.04" cy="1005.12" fill="#132e65"></circle><circle r="5" cx="351.5" cy="792.13" fill="#132e65"></circle><circle r="5" cx="382.82" cy="953.05" fill="#132e65"></circle><circle r="5" cx="552.37" cy="522.53" fill="#132e65"></circle><circle r="5" cx="551.79" cy="691.79" fill="#132e65"></circle><circle r="5" cx="545.66" cy="963.61" fill="#132e65"></circle><circle r="5" cx="665.95" cy="404.88" fill="#132e65"></circle><circle r="5" cx="638.45" cy="515.51" fill="#132e65"></circle><circle r="5" cx="690.71" cy="693.17" fill="#132e65"></circle><circle r="5" cx="692.22" cy="796.61" fill="#132e65"></circle><circle r="5" cx="643.4" cy="976.2" fill="#132e65"></circle><circle r="5" cx="794.33" cy="255.96" fill="#132e65"></circle><circle r="5" cx="836.97" cy="359.96" fill="#132e65"></circle><circle r="5" cx="791.46" cy="539.45" fill="#132e65"></circle><circle r="5" cx="832.2" cy="667.26" fill="#132e65"></circle><circle r="5" cx="820.46" cy="802.95" fill="#132e65"></circle><circle r="5" cx="845.95" cy="960.64" fill="#132e65"></circle><circle r="5" cx="967.83" cy="-50.84" fill="#132e65"></circle><circle r="5" cx="1003.44" cy="49.12" fill="#132e65"></circle><circle r="5" cx="969.27" cy="214.02" fill="#132e65"></circle><circle r="5" cx="1003.83" cy="373.39" fill="#132e65"></circle><circle r="5" cx="998.43" cy="500.73" fill="#132e65"></circle><circle r="5" cx="942.53" cy="682.32" fill="#132e65"></circle><circle r="5" cx="966.89" cy="833.45" fill="#132e65"></circle><circle r="5" cx="1102.59" cy="-55.46" fill="#132e65"></circle><circle r="5" cx="1142" cy="110.4" fill="#132e65"></circle><circle r="5" cx="1090.9" cy="222.89" fill="#132e65"></circle><circle r="5" cx="1159.87" cy="538.08" fill="#132e65"></circle><circle r="5" cx="1093.88" cy="643.2" fill="#132e65"></circle><circle r="5" cx="1144.05" cy="1011.99" fill="#132e65"></circle><circle r="5" cx="1277.58" cy="-39.32" fill="#132e65"></circle><circle r="5" cx="1252.83" cy="66.18" fill="#132e65"></circle><circle r="5" cx="1242.48" cy="214.32" fill="#132e65"></circle><circle r="5" cx="1251.92" cy="364.48" fill="#132e65"></circle><circle r="5" cx="1244.48" cy="499.31" fill="#132e65"></circle><circle r="5" cx="1304.95" cy="708.69" fill="#132e65"></circle><circle r="5" cx="1276.96" cy="830.2" fill="#132e65"></circle><circle r="5" cx="1309.19" cy="949.86" fill="#132e65"></circle><circle r="5" cx="1401.87" cy="-109.85" fill="#132e65"></circle><circle r="5" cx="1435.45" cy="76.48" fill="#132e65"></circle><circle r="5" cx="1400.42" cy="214.94" fill="#132e65"></circle><circle r="5" cx="1402.81" cy="364.81" fill="#132e65"></circle><circle r="5" cx="1458.26" cy="499.42" fill="#132e65"></circle><circle r="5" cx="1409.2" cy="644.65" fill="#132e65"></circle><circle r="5" cx="1423.45" cy="802.35" fill="#132e65"></circle><circle r="5" cx="1392.31" cy="973.26" fill="#132e65"></circle><circle r="5" cx="1570.6" cy="-96.85" fill="#132e65"></circle><circle r="5" cx="1575.64" cy="99.44" fill="#132e65"></circle><circle r="5" cx="1541.79" cy="205.35" fill="#132e65"></circle><circle r="5" cx="1545.02" cy="384.52" fill="#132e65"></circle><circle r="5" cx="1557.63" cy="530.88" fill="#132e65"></circle><circle r="5" cx="1599.08" cy="665.38" fill="#132e65"></circle><circle r="5" cx="1586.99" cy="986.34" fill="#132e65"></circle><path d="M209.63 957.88L209.63 957.88" stroke="hsl(228.5, 77.2%, 51.5%)" stroke-width="1.5"></path><path d="M209.63 957.88L210.75 858.12" stroke="hsl(228.5, 77.2%, 51.5%)" stroke-width="1.5"></path><path d="M209.63 957.88L68.93 987.55" stroke="hsl(228.5, 77.2%, 51.5%)" stroke-width="1.5"></path><path d="M209.63 957.88L385.27 1012.36" stroke="hsl(228.5, 77.2%, 51.5%)" stroke-width="1.5"></path><path d="M385.27 1012.36L385.27 1012.36" stroke="hsl(228.5, 77.2%, 51.5%)" stroke-width="1.5"></path><path d="M385.27 1012.36L557.81 973.91" stroke="hsl(228.5, 77.2%, 51.5%)" stroke-width="1.5"></path><path d="M385.27 1012.36L347.38 810.91" stroke="hsl(228.5, 77.2%, 51.5%)" stroke-width="1.5"></path><path d="M495.62 641.55L495.62 641.55" stroke="hsl(228.5, 77.2%, 51.5%)" stroke-width="1.5"></path><path d="M495.62 641.55L555.12 819.07" stroke="hsl(228.5, 77.2%, 51.5%)" stroke-width="1.5"></path><path d="M495.62 641.55L692.93 686.83" stroke="hsl(228.5, 77.2%, 51.5%)" stroke-width="1.5"></path><path d="M495.62 641.55L347.38 810.91" stroke="hsl(228.5, 77.2%, 51.5%)" stroke-width="1.5"></path><path d="M555.12 819.07L555.12 819.07" stroke="hsl(228.5, 77.2%, 51.5%)" stroke-width="1.5"></path><path d="M555.12 819.07L660.35 830.28" stroke="hsl(228.5, 77.2%, 51.5%)" stroke-width="1.5"></path><path d="M555.12 819.07L557.81 973.91" stroke="hsl(228.5, 77.2%, 51.5%)" stroke-width="1.5"></path><path d="M555.12 819.07L692.93 686.83" stroke="hsl(228.5, 77.2%, 51.5%)" stroke-width="1.5"></path><path d="M555.12 819.07L704.66 943.06" stroke="hsl(228.5, 77.2%, 51.5%)" stroke-width="1.5"></path><path d="M991.78 356.37L991.78 356.37" stroke="hsl(228.5, 77.2%, 51.5%)" stroke-width="1.5"></path><path d="M991.78 356.37L1143.88 395.64" stroke="hsl(228.5, 77.2%, 51.5%)" stroke-width="1.5"></path><path d="M991.78 356.37L964.49 533.45" stroke="hsl(228.5, 77.2%, 51.5%)" stroke-width="1.5"></path><path d="M991.78 356.37L1108.45 529.76" stroke="hsl(228.5, 77.2%, 51.5%)" stroke-width="1.5"></path><path d="M991.78 356.37L861.78 525.24" stroke="hsl(228.5, 77.2%, 51.5%)" stroke-width="1.5"></path><path d="M959.34 666.75L959.34 666.75" stroke="hsl(228.5, 77.2%, 51.5%)" stroke-width="1.5"></path><path d="M959.34 666.75L943.62 787.7" stroke="hsl(228.5, 77.2%, 51.5%)" stroke-width="1.5"></path><path d="M1302.88 -90.86L1302.88 -90.86" stroke="hsl(228.5, 77.2%, 51.5%)" stroke-width="1.5"></path><path d="M1302.88 -90.86L1410.36 -39.55" stroke="hsl(228.5, 77.2%, 51.5%)" stroke-width="1.5"></path><path d="M1302.88 -90.86L1154.73 -63.43" stroke="hsl(228.5, 77.2%, 51.5%)" stroke-width="1.5"></path><path d="M1410.36 -39.55L1410.36 -39.55" stroke="hsl(228.5, 77.2%, 51.5%)" stroke-width="1.5"></path><path d="M1410.36 -39.55L1417.39 96.46" stroke="hsl(228.5, 77.2%, 51.5%)" stroke-width="1.5"></path><path d="M1410.36 -39.55L1604.66 -53.4" stroke="hsl(228.5, 77.2%, 51.5%)" stroke-width="1.5"></path><path d="M1410.36 -39.55L1567.62 92.56" stroke="hsl(228.5, 77.2%, 51.5%)" stroke-width="1.5"></path><path d="M1410.36 -39.55L1241.83 87.42" stroke="hsl(228.5, 77.2%, 51.5%)" stroke-width="1.5"></path><path d="M1458.9 209.66L1458.9 209.66" stroke="hsl(228.5, 77.2%, 51.5%)" stroke-width="1.5"></path><path d="M1458.9 209.66L1417.39 96.46" stroke="hsl(228.5, 77.2%, 51.5%)" stroke-width="1.5"></path><path d="M1458.9 209.66L1607.25 256.03" stroke="hsl(228.5, 77.2%, 51.5%)" stroke-width="1.5"></path><path d="M1458.9 209.66L1567.62 92.56" stroke="hsl(228.5, 77.2%, 51.5%)" stroke-width="1.5"></path><path d="M1458.9 209.66L1460.18 370.46" stroke="hsl(228.5, 77.2%, 51.5%)" stroke-width="1.5"></path><path d="M1458.9 209.66L1253.14 218.7" stroke="hsl(228.5, 77.2%, 51.5%)" stroke-width="1.5"></path><path d="M1400.36 825.9L1400.36 825.9" stroke="hsl(228.5, 77.2%, 51.5%)" stroke-width="1.5"></path><path d="M1400.36 825.9L1310.02 835.37" stroke="hsl(228.5, 77.2%, 51.5%)" stroke-width="1.5"></path><path d="M1400.36 825.9L1444.43 676.96" stroke="hsl(228.5, 77.2%, 51.5%)" stroke-width="1.5"></path><path d="M1604.66 -53.4L1604.66 -53.4" stroke="hsl(228.5, 77.2%, 51.5%)" stroke-width="1.5"></path><path d="M1604.66 -53.4L1567.62 92.56" stroke="hsl(228.5, 77.2%, 51.5%)" stroke-width="1.5"></path><path d="M1604.66 -53.4L1417.39 96.46" stroke="hsl(228.5, 77.2%, 51.5%)" stroke-width="1.5"></path><path d="M-58.53 701.9L-58.53 701.9" stroke="hsl(228.5, 77.2%, 51.5%)" stroke-width="1.5"></path><path d="M-58.53 701.9L-45.8 826.47" stroke="hsl(228.5, 77.2%, 51.5%)" stroke-width="1.5"></path><path d="M-58.53 701.9L110.11 693.7" stroke="hsl(228.5, 77.2%, 51.5%)" stroke-width="1.5"></path><path d="M-58.53 701.9L68.71 828.83" stroke="hsl(228.5, 77.2%, 51.5%)" stroke-width="1.5"></path><path d="M-58.53 701.9L-74.7 955.02" stroke="hsl(228.5, 77.2%, 51.5%)" stroke-width="1.5"></path><path d="M-58.53 701.9L210.75 858.12" stroke="hsl(228.5, 77.2%, 51.5%)" stroke-width="1.5"></path><path d="M-58.53 701.9L68.93 987.55" stroke="hsl(228.5, 77.2%, 51.5%)" stroke-width="1.5"></path><path d="M-45.8 826.47L-45.8 826.47" stroke="hsl(228.5, 77.2%, 51.5%)" stroke-width="1.5"></path><path d="M-45.8 826.47L68.71 828.83" stroke="hsl(228.5, 77.2%, 51.5%)" stroke-width="1.5"></path><path d="M-45.8 826.47L-74.7 955.02" stroke="hsl(228.5, 77.2%, 51.5%)" stroke-width="1.5"></path><path d="M-45.8 826.47L68.93 987.55" stroke="hsl(228.5, 77.2%, 51.5%)" stroke-width="1.5"></path><path d="M-45.8 826.47L110.11 693.7" stroke="hsl(228.5, 77.2%, 51.5%)" stroke-width="1.5"></path><path d="M-45.8 826.47L210.75 858.12" stroke="hsl(228.5, 77.2%, 51.5%)" stroke-width="1.5"></path><path d="M-74.7 955.02L-74.7 955.02" stroke="hsl(228.5, 77.2%, 51.5%)" stroke-width="1.5"></path><path d="M-74.7 955.02L68.93 987.55" stroke="hsl(228.5, 77.2%, 51.5%)" stroke-width="1.5"></path><path d="M-74.7 955.02L68.71 828.83" stroke="hsl(228.5, 77.2%, 51.5%)" stroke-width="1.5"></path><path d="M110.11 693.7L110.11 693.7" stroke="hsl(228.5, 77.2%, 51.5%)" stroke-width="1.5"></path><path d="M110.11 693.7L68.71 828.83" stroke="hsl(228.5, 77.2%, 51.5%)" stroke-width="1.5"></path><path d="M110.11 693.7L210.75 858.12" stroke="hsl(228.5, 77.2%, 51.5%)" stroke-width="1.5"></path><path d="M68.71 828.83L68.71 828.83" stroke="hsl(228.5, 77.2%, 51.5%)" stroke-width="1.5"></path><path d="M68.93 987.55L68.93 987.55" stroke="hsl(228.5, 77.2%, 51.5%)" stroke-width="1.5"></path><path d="M68.93 987.55L68.71 828.83" stroke="hsl(228.5, 77.2%, 51.5%)" stroke-width="1.5"></path><path d="M68.93 987.55L210.75 858.12" stroke="hsl(228.5, 77.2%, 51.5%)" stroke-width="1.5"></path><path d="M210.75 858.12L210.75 858.12" stroke="hsl(228.5, 77.2%, 51.5%)" stroke-width="1.5"></path><path d="M210.75 858.12L347.38 810.91" stroke="hsl(228.5, 77.2%, 51.5%)" stroke-width="1.5"></path><path d="M347.38 810.91L347.38 810.91" stroke="hsl(228.5, 77.2%, 51.5%)" stroke-width="1.5"></path><path d="M557.81 973.91L557.81 973.91" stroke="hsl(228.5, 77.2%, 51.5%)" stroke-width="1.5"></path><path d="M557.81 973.91L704.66 943.06" stroke="hsl(228.5, 77.2%, 51.5%)" stroke-width="1.5"></path><path d="M557.81 973.91L660.35 830.28" stroke="hsl(228.5, 77.2%, 51.5%)" stroke-width="1.5"></path><path d="M557.81 973.91L800.05 988.73" stroke="hsl(228.5, 77.2%, 51.5%)" stroke-width="1.5"></path><path d="M557.81 973.91L347.38 810.91" stroke="hsl(228.5, 77.2%, 51.5%)" stroke-width="1.5"></path><path d="M692.93 686.83L692.93 686.83" stroke="hsl(228.5, 77.2%, 51.5%)" stroke-width="1.5"></path><path d="M692.93 686.83L807.95 692.86" stroke="hsl(228.5, 77.2%, 51.5%)" stroke-width="1.5"></path><path d="M692.93 686.83L660.35 830.28" stroke="hsl(228.5, 77.2%, 51.5%)" stroke-width="1.5"></path><path d="M692.93 686.83L817.22 818.96" stroke="hsl(228.5, 77.2%, 51.5%)" stroke-width="1.5"></path><path d="M692.93 686.83L861.78 525.24" stroke="hsl(228.5, 77.2%, 51.5%)" stroke-width="1.5"></path><path d="M660.35 830.28L660.35 830.28" stroke="hsl(228.5, 77.2%, 51.5%)" stroke-width="1.5"></path><path d="M660.35 830.28L704.66 943.06" stroke="hsl(228.5, 77.2%, 51.5%)" stroke-width="1.5"></path><path d="M660.35 830.28L817.22 818.96" stroke="hsl(228.5, 77.2%, 51.5%)" stroke-width="1.5"></path><path d="M704.66 943.06L704.66 943.06" stroke="hsl(228.5, 77.2%, 51.5%)" stroke-width="1.5"></path><path d="M704.66 943.06L800.05 988.73" stroke="hsl(228.5, 77.2%, 51.5%)" stroke-width="1.5"></path><path d="M861.78 525.24L861.78 525.24" stroke="hsl(228.5, 77.2%, 51.5%)" stroke-width="1.5"></path><path d="M861.78 525.24L964.49 533.45" stroke="hsl(228.5, 77.2%, 51.5%)" stroke-width="1.5"></path><path d="M861.78 525.24L959.34 666.75" stroke="hsl(228.5, 77.2%, 51.5%)" stroke-width="1.5"></path><path d="M861.78 525.24L807.95 692.86" stroke="hsl(228.5, 77.2%, 51.5%)" stroke-width="1.5"></path><path d="M807.95 692.86L807.95 692.86" stroke="hsl(228.5, 77.2%, 51.5%)" stroke-width="1.5"></path><path d="M807.95 692.86L817.22 818.96" stroke="hsl(228.5, 77.2%, 51.5%)" stroke-width="1.5"></path><path d="M807.95 692.86L959.34 666.75" stroke="hsl(228.5, 77.2%, 51.5%)" stroke-width="1.5"></path><path d="M807.95 692.86L943.62 787.7" stroke="hsl(228.5, 77.2%, 51.5%)" stroke-width="1.5"></path><path d="M817.22 818.96L817.22 818.96" stroke="hsl(228.5, 77.2%, 51.5%)" stroke-width="1.5"></path><path d="M817.22 818.96L943.62 787.7" stroke="hsl(228.5, 77.2%, 51.5%)" stroke-width="1.5"></path><path d="M800.05 988.73L800.05 988.73" stroke="hsl(228.5, 77.2%, 51.5%)" stroke-width="1.5"></path><path d="M800.05 988.73L955.36 959.27" stroke="hsl(228.5, 77.2%, 51.5%)" stroke-width="1.5"></path><path d="M800.05 988.73L817.22 818.96" stroke="hsl(228.5, 77.2%, 51.5%)" stroke-width="1.5"></path><path d="M964.49 533.45L964.49 533.45" stroke="hsl(228.5, 77.2%, 51.5%)" stroke-width="1.5"></path><path d="M964.49 533.45L959.34 666.75" stroke="hsl(228.5, 77.2%, 51.5%)" stroke-width="1.5"></path><path d="M943.62 787.7L943.62 787.7" stroke="hsl(228.5, 77.2%, 51.5%)" stroke-width="1.5"></path><path d="M943.62 787.7L1094.94 819.37" stroke="hsl(228.5, 77.2%, 51.5%)" stroke-width="1.5"></path><path d="M943.62 787.7L955.36 959.27" stroke="hsl(228.5, 77.2%, 51.5%)" stroke-width="1.5"></path><path d="M955.36 959.27L955.36 959.27" stroke="hsl(228.5, 77.2%, 51.5%)" stroke-width="1.5"></path><path d="M955.36 959.27L1121.62 967.27" stroke="hsl(228.5, 77.2%, 51.5%)" stroke-width="1.5"></path><path d="M1154.73 -63.43L1154.73 -63.43" stroke="hsl(228.5, 77.2%, 51.5%)" stroke-width="1.5"></path><path d="M1154.73 -63.43L1241.83 87.42" stroke="hsl(228.5, 77.2%, 51.5%)" stroke-width="1.5"></path><path d="M1154.73 -63.43L1410.36 -39.55" stroke="hsl(228.5, 77.2%, 51.5%)" stroke-width="1.5"></path><path d="M1154.73 -63.43L1253.14 218.7" stroke="hsl(228.5, 77.2%, 51.5%)" stroke-width="1.5"></path><path d="M1143.88 395.64L1143.88 395.64" stroke="hsl(228.5, 77.2%, 51.5%)" stroke-width="1.5"></path><path d="M1143.88 395.64L1108.45 529.76" stroke="hsl(228.5, 77.2%, 51.5%)" stroke-width="1.5"></path><path d="M1143.88 395.64L1303.38 391.61" stroke="hsl(228.5, 77.2%, 51.5%)" stroke-width="1.5"></path><path d="M1143.88 395.64L1247.83 522.74" stroke="hsl(228.5, 77.2%, 51.5%)" stroke-width="1.5"></path><path d="M1108.45 529.76L1108.45 529.76" stroke="hsl(228.5, 77.2%, 51.5%)" stroke-width="1.5"></path><path d="M1108.45 529.76L1247.83 522.74" stroke="hsl(228.5, 77.2%, 51.5%)" stroke-width="1.5"></path><path d="M1108.45 529.76L964.49 533.45" stroke="hsl(228.5, 77.2%, 51.5%)" stroke-width="1.5"></path><path d="M1118.66 679.1L1118.66 679.1" stroke="hsl(228.5, 77.2%, 51.5%)" stroke-width="1.5"></path><path d="M1118.66 679.1L1094.94 819.37" stroke="hsl(228.5, 77.2%, 51.5%)" stroke-width="1.5"></path><path d="M1118.66 679.1L1108.45 529.76" stroke="hsl(228.5, 77.2%, 51.5%)" stroke-width="1.5"></path><path d="M1118.66 679.1L959.34 666.75" stroke="hsl(228.5, 77.2%, 51.5%)" stroke-width="1.5"></path><path d="M1118.66 679.1L1303.13 695.63" stroke="hsl(228.5, 77.2%, 51.5%)" stroke-width="1.5"></path><path d="M1118.66 679.1L1247.83 522.74" stroke="hsl(228.5, 77.2%, 51.5%)" stroke-width="1.5"></path><path d="M1094.94 819.37L1094.94 819.37" stroke="hsl(228.5, 77.2%, 51.5%)" stroke-width="1.5"></path><path d="M1094.94 819.37L1121.62 967.27" stroke="hsl(228.5, 77.2%, 51.5%)" stroke-width="1.5"></path><path d="M1094.94 819.37L955.36 959.27" stroke="hsl(228.5, 77.2%, 51.5%)" stroke-width="1.5"></path><path d="M1094.94 819.37L959.34 666.75" stroke="hsl(228.5, 77.2%, 51.5%)" stroke-width="1.5"></path><path d="M1121.62 967.27L1121.62 967.27" stroke="hsl(228.5, 77.2%, 51.5%)" stroke-width="1.5"></path><path d="M1121.62 967.27L1306.25 961.58" stroke="hsl(228.5, 77.2%, 51.5%)" stroke-width="1.5"></path><path d="M1121.62 967.27L1310.02 835.37" stroke="hsl(228.5, 77.2%, 51.5%)" stroke-width="1.5"></path><path d="M1121.62 967.27L943.62 787.7" stroke="hsl(228.5, 77.2%, 51.5%)" stroke-width="1.5"></path><path d="M1241.83 87.42L1241.83 87.42" stroke="hsl(228.5, 77.2%, 51.5%)" stroke-width="1.5"></path><path d="M1241.83 87.42L1253.14 218.7" stroke="hsl(228.5, 77.2%, 51.5%)" stroke-width="1.5"></path><path d="M1241.83 87.42L1417.39 96.46" stroke="hsl(228.5, 77.2%, 51.5%)" stroke-width="1.5"></path><path d="M1253.14 218.7L1253.14 218.7" stroke="hsl(228.5, 77.2%, 51.5%)" stroke-width="1.5"></path><path d="M1253.14 218.7L1303.38 391.61" stroke="hsl(228.5, 77.2%, 51.5%)" stroke-width="1.5"></path><path d="M1253.14 218.7L1417.39 96.46" stroke="hsl(228.5, 77.2%, 51.5%)" stroke-width="1.5"></path><path d="M1253.14 218.7L1143.88 395.64" stroke="hsl(228.5, 77.2%, 51.5%)" stroke-width="1.5"></path><path d="M1303.38 391.61L1303.38 391.61" stroke="hsl(228.5, 77.2%, 51.5%)" stroke-width="1.5"></path><path d="M1303.38 391.61L1247.83 522.74" stroke="hsl(228.5, 77.2%, 51.5%)" stroke-width="1.5"></path><path d="M1303.38 391.61L1460.18 370.46" stroke="hsl(228.5, 77.2%, 51.5%)" stroke-width="1.5"></path><path d="M1247.83 522.74L1247.83 522.74" stroke="hsl(228.5, 77.2%, 51.5%)" stroke-width="1.5"></path><path d="M1303.13 695.63L1303.13 695.63" stroke="hsl(228.5, 77.2%, 51.5%)" stroke-width="1.5"></path><path d="M1303.13 695.63L1310.02 835.37" stroke="hsl(228.5, 77.2%, 51.5%)" stroke-width="1.5"></path><path d="M1303.13 695.63L1444.43 676.96" stroke="hsl(228.5, 77.2%, 51.5%)" stroke-width="1.5"></path><path d="M1310.02 835.37L1310.02 835.37" stroke="hsl(228.5, 77.2%, 51.5%)" stroke-width="1.5"></path><path d="M1310.02 835.37L1306.25 961.58" stroke="hsl(228.5, 77.2%, 51.5%)" stroke-width="1.5"></path><path d="M1306.25 961.58L1306.25 961.58" stroke="hsl(228.5, 77.2%, 51.5%)" stroke-width="1.5"></path><path d="M1306.25 961.58L1415.27 986.43" stroke="hsl(228.5, 77.2%, 51.5%)" stroke-width="1.5"></path><path d="M1306.25 961.58L1400.36 825.9" stroke="hsl(228.5, 77.2%, 51.5%)" stroke-width="1.5"></path><path d="M1417.39 96.46L1417.39 96.46" stroke="hsl(228.5, 77.2%, 51.5%)" stroke-width="1.5"></path><path d="M1417.39 96.46L1567.62 92.56" stroke="hsl(228.5, 77.2%, 51.5%)" stroke-width="1.5"></path><path d="M1417.39 96.46L1302.88 -90.86" stroke="hsl(228.5, 77.2%, 51.5%)" stroke-width="1.5"></path><path d="M1460.18 370.46L1460.18 370.46" stroke="hsl(228.5, 77.2%, 51.5%)" stroke-width="1.5"></path><path d="M1460.18 370.46L1436 529.21" stroke="hsl(228.5, 77.2%, 51.5%)" stroke-width="1.5"></path><path d="M1436 529.21L1436 529.21" stroke="hsl(228.5, 77.2%, 51.5%)" stroke-width="1.5"></path><path d="M1436 529.21L1566.78 505.79" stroke="hsl(228.5, 77.2%, 51.5%)" stroke-width="1.5"></path><path d="M1436 529.21L1444.43 676.96" stroke="hsl(228.5, 77.2%, 51.5%)" stroke-width="1.5"></path><path d="M1444.43 676.96L1444.43 676.96" stroke="hsl(228.5, 77.2%, 51.5%)" stroke-width="1.5"></path><path d="M1444.43 676.96L1542.87 685.06" stroke="hsl(228.5, 77.2%, 51.5%)" stroke-width="1.5"></path><path d="M1415.27 986.43L1415.27 986.43" stroke="hsl(228.5, 77.2%, 51.5%)" stroke-width="1.5"></path><path d="M1415.27 986.43L1400.36 825.9" stroke="hsl(228.5, 77.2%, 51.5%)" stroke-width="1.5"></path><path d="M1415.27 986.43L1310.02 835.37" stroke="hsl(228.5, 77.2%, 51.5%)" stroke-width="1.5"></path><path d="M1567.62 92.56L1567.62 92.56" stroke="hsl(228.5, 77.2%, 51.5%)" stroke-width="1.5"></path><path d="M1567.62 92.56L1607.25 256.03" stroke="hsl(228.5, 77.2%, 51.5%)" stroke-width="1.5"></path><path d="M1567.62 92.56L1460.18 370.46" stroke="hsl(228.5, 77.2%, 51.5%)" stroke-width="1.5"></path><path d="M1607.25 256.03L1607.25 256.03" stroke="hsl(228.5, 77.2%, 51.5%)" stroke-width="1.5"></path><path d="M1607.25 256.03L1460.18 370.46" stroke="hsl(228.5, 77.2%, 51.5%)" stroke-width="1.5"></path><path d="M1607.25 256.03L1417.39 96.46" stroke="hsl(228.5, 77.2%, 51.5%)" stroke-width="1.5"></path><path d="M1607.25 256.03L1566.78 505.79" stroke="hsl(228.5, 77.2%, 51.5%)" stroke-width="1.5"></path><path d="M1607.25 256.03L1604.66 -53.4" stroke="hsl(228.5, 77.2%, 51.5%)" stroke-width="1.5"></path><path d="M1566.78 505.79L1566.78 505.79" stroke="hsl(228.5, 77.2%, 51.5%)" stroke-width="1.5"></path><path d="M1566.78 505.79L1460.18 370.46" stroke="hsl(228.5, 77.2%, 51.5%)" stroke-width="1.5"></path><path d="M1566.78 505.79L1542.87 685.06" stroke="hsl(228.5, 77.2%, 51.5%)" stroke-width="1.5"></path><path d="M1566.78 505.79L1444.43 676.96" stroke="hsl(228.5, 77.2%, 51.5%)" stroke-width="1.5"></path><path d="M1566.78 505.79L1303.38 391.61" stroke="hsl(228.5, 77.2%, 51.5%)" stroke-width="1.5"></path><path d="M1542.87 685.06L1542.87 685.06" stroke="hsl(228.5, 77.2%, 51.5%)" stroke-width="1.5"></path><path d="M1542.87 685.06L1571.87 840.54" stroke="hsl(228.5, 77.2%, 51.5%)" stroke-width="1.5"></path><path d="M1571.87 840.54L1571.87 840.54" stroke="hsl(228.5, 77.2%, 51.5%)" stroke-width="1.5"></path><path d="M1571.87 840.54L1602.29 980.96" stroke="hsl(228.5, 77.2%, 51.5%)" stroke-width="1.5"></path><path d="M1571.87 840.54L1400.36 825.9" stroke="hsl(228.5, 77.2%, 51.5%)" stroke-width="1.5"></path><path d="M1602.29 980.96L1602.29 980.96" stroke="hsl(228.5, 77.2%, 51.5%)" stroke-width="1.5"></path><path d="M1602.29 980.96L1415.27 986.43" stroke="hsl(228.5, 77.2%, 51.5%)" stroke-width="1.5"></path><path d="M1602.29 980.96L1400.36 825.9" stroke="hsl(228.5, 77.2%, 51.5%)" stroke-width="1.5"></path><circle r="25" cx="209.63" cy="957.88" fill="url(#SvgjsRadialGradient2608)"></circle><circle r="25" cx="385.27" cy="1012.36" fill="url(#SvgjsRadialGradient2608)"></circle><circle r="25" cx="495.62" cy="641.55" fill="url(#SvgjsRadialGradient2608)"></circle><circle r="25" cx="555.12" cy="819.07" fill="url(#SvgjsRadialGradient2608)"></circle><circle r="25" cx="991.78" cy="356.37" fill="url(#SvgjsRadialGradient2608)"></circle><circle r="25" cx="959.34" cy="666.75" fill="url(#SvgjsRadialGradient2608)"></circle><circle r="25" cx="1302.88" cy="-90.86" fill="url(#SvgjsRadialGradient2608)"></circle><circle r="25" cx="1410.36" cy="-39.55" fill="url(#SvgjsRadialGradient2608)"></circle><circle r="25" cx="1458.9" cy="209.66" fill="url(#SvgjsRadialGradient2608)"></circle><circle r="25" cx="1400.36" cy="825.9" fill="url(#SvgjsRadialGradient2608)"></circle><circle r="25" cx="1604.66" cy="-53.4" fill="url(#SvgjsRadialGradient2608)"></circle><circle r="5" cx="-58.53" cy="701.9" fill="#8b9ad9"></circle><circle r="5" cx="-45.8" cy="826.47" fill="#8b9ad9"></circle><circle r="5" cx="-74.7" cy="955.02" fill="#8b9ad9"></circle><circle r="5" cx="110.11" cy="693.7" fill="#8b9ad9"></circle><circle r="5" cx="68.71" cy="828.83" fill="#8b9ad9"></circle><circle r="5" cx="68.93" cy="987.55" fill="#8b9ad9"></circle><circle r="5" cx="210.75" cy="858.12" fill="#8b9ad9"></circle><circle r="5" cx="347.38" cy="810.91" fill="#8b9ad9"></circle><circle r="5" cx="557.81" cy="973.91" fill="#8b9ad9"></circle><circle r="5" cx="692.93" cy="686.83" fill="#8b9ad9"></circle><circle r="5" cx="660.35" cy="830.28" fill="#8b9ad9"></circle><circle r="5" cx="704.66" cy="943.06" fill="#8b9ad9"></circle><circle r="5" cx="861.78" cy="525.24" fill="#8b9ad9"></circle><circle r="5" cx="807.95" cy="692.86" fill="#8b9ad9"></circle><circle r="5" cx="817.22" cy="818.96" fill="#8b9ad9"></circle><circle r="5" cx="800.05" cy="988.73" fill="#8b9ad9"></circle><circle r="5" cx="964.49" cy="533.45" fill="#8b9ad9"></circle><circle r="5" cx="943.62" cy="787.7" fill="#8b9ad9"></circle><circle r="5" cx="955.36" cy="959.27" fill="#8b9ad9"></circle><circle r="5" cx="1154.73" cy="-63.43" fill="#8b9ad9"></circle><circle r="5" cx="1143.88" cy="395.64" fill="#8b9ad9"></circle><circle r="5" cx="1108.45" cy="529.76" fill="#8b9ad9"></circle><circle r="5" cx="1118.66" cy="679.1" fill="#8b9ad9"></circle><circle r="5" cx="1094.94" cy="819.37" fill="#8b9ad9"></circle><circle r="5" cx="1121.62" cy="967.27" fill="#8b9ad9"></circle><circle r="5" cx="1241.83" cy="87.42" fill="#8b9ad9"></circle><circle r="5" cx="1253.14" cy="218.7" fill="#8b9ad9"></circle><circle r="5" cx="1303.38" cy="391.61" fill="#8b9ad9"></circle><circle r="5" cx="1247.83" cy="522.74" fill="#8b9ad9"></circle><circle r="5" cx="1303.13" cy="695.63" fill="#8b9ad9"></circle><circle r="5" cx="1310.02" cy="835.37" fill="#8b9ad9"></circle><circle r="5" cx="1306.25" cy="961.58" fill="#8b9ad9"></circle><circle r="5" cx="1417.39" cy="96.46" fill="#8b9ad9"></circle><circle r="5" cx="1460.18" cy="370.46" fill="#8b9ad9"></circle><circle r="5" cx="1436" cy="529.21" fill="#8b9ad9"></circle><circle r="5" cx="1444.43" cy="676.96" fill="#8b9ad9"></circle><circle r="5" cx="1415.27" cy="986.43" fill="#8b9ad9"></circle><circle r="5" cx="1567.62" cy="92.56" fill="#8b9ad9"></circle><circle r="5" cx="1607.25" cy="256.03" fill="#8b9ad9"></circle><circle r="5" cx="1566.78" cy="505.79" fill="#8b9ad9"></circle><circle r="5" cx="1542.87" cy="685.06" fill="#8b9ad9"></circle><circle r="5" cx="1571.87" cy="840.54" fill="#8b9ad9"></circle><circle r="5" cx="1602.29" cy="980.96" fill="#8b9ad9"></circle></g><defs><mask id="SvgjsMask2607"><rect width="1440" height="870" fill="#ffffff"></rect></mask><radialGradient id="SvgjsRadialGradient2608"><stop stop-color="#ffffff" offset="0.1"></stop><stop stop-color="#1735b3" offset="0.2"></stop><stop stop-color="rgba(23, 53, 179, 0)" offset="1"></stop></radialGradient></defs></svg>