<svg xmlns="http://www.w3.org/2000/svg" version="1.1" xmlns:xlink="http://www.w3.org/1999/xlink" xmlns:svgjs="http://svgjs.com/svgjs" width="657" height="900" preserveAspectRatio="none" viewBox="0 0 657 900"><g mask="url(&quot;#SvgjsMask2619&quot;)" fill="none"><rect width="657" height="900" x="0" y="0" fill="#0e2a47"></rect><path d="M-55.15 630.33L-55.15 630.33" stroke="#132e65" stroke-width="1.5"></path><path d="M-55.15 630.33L49.65 637.74" stroke="#132e65" stroke-width="1.5"></path><path d="M-55.15 630.33L-35 752.8" stroke="#132e65" stroke-width="1.5"></path><path d="M-55.15 630.33L82.69 755.55" stroke="#132e65" stroke-width="1.5"></path><path d="M-55.15 630.33L141.16 636.5" stroke="#132e65" stroke-width="1.5"></path><path d="M-55.15 630.33L-49.87 834.77" stroke="#132e65" stroke-width="1.5"></path><path d="M-35 752.8L-35 752.8" stroke="#132e65" stroke-width="1.5"></path><path d="M-35 752.8L-49.87 834.77" stroke="#132e65" stroke-width="1.5"></path><path d="M-35 752.8L82.69 755.55" stroke="#132e65" stroke-width="1.5"></path><path d="M-35 752.8L49.83 847.62" stroke="#132e65" stroke-width="1.5"></path><path d="M-49.87 834.77L-49.87 834.77" stroke="#132e65" stroke-width="1.5"></path><path d="M-49.87 834.77L49.83 847.62" stroke="#132e65" stroke-width="1.5"></path><path d="M-49.87 834.77L-51.45 956.22" stroke="#132e65" stroke-width="1.5"></path><path d="M-49.87 834.77L82.69 755.55" stroke="#132e65" stroke-width="1.5"></path><path d="M-49.87 834.77L50.65 969.31" stroke="#132e65" stroke-width="1.5"></path><path d="M-51.45 956.22L-51.45 956.22" stroke="#132e65" stroke-width="1.5"></path><path d="M-51.45 956.22L50.65 969.31" stroke="#132e65" stroke-width="1.5"></path><path d="M-51.45 956.22L49.83 847.62" stroke="#132e65" stroke-width="1.5"></path><path d="M-51.45 956.22L-35 752.8" stroke="#132e65" stroke-width="1.5"></path><path d="M49.65 637.74L49.65 637.74" stroke="#132e65" stroke-width="1.5"></path><path d="M49.65 637.74L141.16 636.5" stroke="#132e65" stroke-width="1.5"></path><path d="M49.65 637.74L82.69 755.55" stroke="#132e65" stroke-width="1.5"></path><path d="M49.65 637.74L-35 752.8" stroke="#132e65" stroke-width="1.5"></path><path d="M49.65 637.74L176.21 726.43" stroke="#132e65" stroke-width="1.5"></path><path d="M49.65 637.74L49.83 847.62" stroke="#132e65" stroke-width="1.5"></path><path d="M82.69 755.55L82.69 755.55" stroke="#132e65" stroke-width="1.5"></path><path d="M82.69 755.55L49.83 847.62" stroke="#132e65" stroke-width="1.5"></path><path d="M82.69 755.55L176.21 726.43" stroke="#132e65" stroke-width="1.5"></path><path d="M49.83 847.62L49.83 847.62" stroke="#132e65" stroke-width="1.5"></path><path d="M49.83 847.62L50.65 969.31" stroke="#132e65" stroke-width="1.5"></path><path d="M50.65 969.31L50.65 969.31" stroke="#132e65" stroke-width="1.5"></path><path d="M141.16 636.5L141.16 636.5" stroke="#132e65" stroke-width="1.5"></path><path d="M141.16 636.5L176.21 726.43" stroke="#132e65" stroke-width="1.5"></path><path d="M141.16 636.5L82.69 755.55" stroke="#132e65" stroke-width="1.5"></path><path d="M176.21 726.43L176.21 726.43" stroke="#132e65" stroke-width="1.5"></path><path d="M176.21 726.43L286.96 744.19" stroke="#132e65" stroke-width="1.5"></path><path d="M176.21 726.43L186.76 840.67" stroke="#132e65" stroke-width="1.5"></path><path d="M176.21 726.43L304.65 609.5" stroke="#132e65" stroke-width="1.5"></path><path d="M186.76 840.67L186.76 840.67" stroke="#132e65" stroke-width="1.5"></path><path d="M186.76 840.67L302.17 868.04" stroke="#132e65" stroke-width="1.5"></path><path d="M265.35 505.52L265.35 505.52" stroke="#132e65" stroke-width="1.5"></path><path d="M265.35 505.52L304.65 609.5" stroke="#132e65" stroke-width="1.5"></path><path d="M304.65 609.5L304.65 609.5" stroke="#132e65" stroke-width="1.5"></path><path d="M304.65 609.5L383.34 630.88" stroke="#132e65" stroke-width="1.5"></path><path d="M286.96 744.19L286.96 744.19" stroke="#132e65" stroke-width="1.5"></path><path d="M286.96 744.19L377.64 746.82" stroke="#132e65" stroke-width="1.5"></path><path d="M286.96 744.19L302.17 868.04" stroke="#132e65" stroke-width="1.5"></path><path d="M286.96 744.19L304.65 609.5" stroke="#132e65" stroke-width="1.5"></path><path d="M302.17 868.04L302.17 868.04" stroke="#132e65" stroke-width="1.5"></path><path d="M302.17 868.04L373.4 860.4" stroke="#132e65" stroke-width="1.5"></path><path d="M302.17 868.04L293.48 968.29" stroke="#132e65" stroke-width="1.5"></path><path d="M302.17 868.04L377.64 746.82" stroke="#132e65" stroke-width="1.5"></path><path d="M302.17 868.04L176.21 726.43" stroke="#132e65" stroke-width="1.5"></path><path d="M293.48 968.29L293.48 968.29" stroke="#132e65" stroke-width="1.5"></path><path d="M293.48 968.29L373.4 860.4" stroke="#132e65" stroke-width="1.5"></path><path d="M415.38 42.01L415.38 42.01" stroke="#132e65" stroke-width="1.5"></path><path d="M415.38 42.01L528.94 72.93" stroke="#132e65" stroke-width="1.5"></path><path d="M415.38 42.01L495.82 158.19" stroke="#132e65" stroke-width="1.5"></path><path d="M415.38 42.01L505.78 -71.82" stroke="#132e65" stroke-width="1.5"></path><path d="M415.38 42.01L403.24 192.62" stroke="#132e65" stroke-width="1.5"></path><path d="M415.38 42.01L613.55 147.54" stroke="#132e65" stroke-width="1.5"></path><path d="M403.24 192.62L403.24 192.62" stroke="#132e65" stroke-width="1.5"></path><path d="M403.24 192.62L495.82 158.19" stroke="#132e65" stroke-width="1.5"></path><path d="M403.24 192.62L495.86 288.59" stroke="#132e65" stroke-width="1.5"></path><path d="M418.95 380.72L418.95 380.72" stroke="#132e65" stroke-width="1.5"></path><path d="M418.95 380.72L491.1 403.09" stroke="#132e65" stroke-width="1.5"></path><path d="M418.95 380.72L384.97 487.09" stroke="#132e65" stroke-width="1.5"></path><path d="M418.95 380.72L495.86 288.59" stroke="#132e65" stroke-width="1.5"></path><path d="M384.97 487.09L384.97 487.09" stroke="#132e65" stroke-width="1.5"></path><path d="M384.97 487.09L481.68 490" stroke="#132e65" stroke-width="1.5"></path><path d="M383.34 630.88L383.34 630.88" stroke="#132e65" stroke-width="1.5"></path><path d="M383.34 630.88L377.64 746.82" stroke="#132e65" stroke-width="1.5"></path><path d="M383.34 630.88L511.19 643.02" stroke="#132e65" stroke-width="1.5"></path><path d="M383.34 630.88L384.97 487.09" stroke="#132e65" stroke-width="1.5"></path><path d="M383.34 630.88L286.96 744.19" stroke="#132e65" stroke-width="1.5"></path><path d="M383.34 630.88L504.78 718.08" stroke="#132e65" stroke-width="1.5"></path><path d="M377.64 746.82L377.64 746.82" stroke="#132e65" stroke-width="1.5"></path><path d="M373.4 860.4L373.4 860.4" stroke="#132e65" stroke-width="1.5"></path><path d="M373.4 860.4L377.64 746.82" stroke="#132e65" stroke-width="1.5"></path><path d="M505.78 -71.82L505.78 -71.82" stroke="#132e65" stroke-width="1.5"></path><path d="M505.78 -71.82L615.05 -78.16" stroke="#132e65" stroke-width="1.5"></path><path d="M505.78 -71.82L528.94 72.93" stroke="#132e65" stroke-width="1.5"></path><path d="M528.94 72.93L528.94 72.93" stroke="#132e65" stroke-width="1.5"></path><path d="M528.94 72.93L495.82 158.19" stroke="#132e65" stroke-width="1.5"></path><path d="M528.94 72.93L613.55 147.54" stroke="#132e65" stroke-width="1.5"></path><path d="M495.82 158.19L495.82 158.19" stroke="#132e65" stroke-width="1.5"></path><path d="M495.82 158.19L613.55 147.54" stroke="#132e65" stroke-width="1.5"></path><path d="M495.82 158.19L495.86 288.59" stroke="#132e65" stroke-width="1.5"></path><path d="M495.86 288.59L495.86 288.59" stroke="#132e65" stroke-width="1.5"></path><path d="M495.86 288.59L491.1 403.09" stroke="#132e65" stroke-width="1.5"></path><path d="M495.86 288.59L616.71 293.72" stroke="#132e65" stroke-width="1.5"></path><path d="M491.1 403.09L491.1 403.09" stroke="#132e65" stroke-width="1.5"></path><path d="M491.1 403.09L481.68 490" stroke="#132e65" stroke-width="1.5"></path><path d="M491.1 403.09L384.97 487.09" stroke="#132e65" stroke-width="1.5"></path><path d="M491.1 403.09L640.78 371.23" stroke="#132e65" stroke-width="1.5"></path><path d="M481.68 490L481.68 490" stroke="#132e65" stroke-width="1.5"></path><path d="M481.68 490L597.59 533.89" stroke="#132e65" stroke-width="1.5"></path><path d="M481.68 490L418.95 380.72" stroke="#132e65" stroke-width="1.5"></path><path d="M511.19 643.02L511.19 643.02" stroke="#132e65" stroke-width="1.5"></path><path d="M511.19 643.02L504.78 718.08" stroke="#132e65" stroke-width="1.5"></path><path d="M511.19 643.02L592.26 609.4" stroke="#132e65" stroke-width="1.5"></path><path d="M511.19 643.02L615.6 721.53" stroke="#132e65" stroke-width="1.5"></path><path d="M511.19 643.02L597.59 533.89" stroke="#132e65" stroke-width="1.5"></path><path d="M504.78 718.08L504.78 718.08" stroke="#132e65" stroke-width="1.5"></path><path d="M504.78 718.08L615.6 721.53" stroke="#132e65" stroke-width="1.5"></path><path d="M504.78 718.08L532.64 845.26" stroke="#132e65" stroke-width="1.5"></path><path d="M504.78 718.08L377.64 746.82" stroke="#132e65" stroke-width="1.5"></path><path d="M504.78 718.08L592.26 609.4" stroke="#132e65" stroke-width="1.5"></path><path d="M532.64 845.26L532.64 845.26" stroke="#132e65" stroke-width="1.5"></path><path d="M532.64 845.26L637.38 837.91" stroke="#132e65" stroke-width="1.5"></path><path d="M532.64 845.26L482.95 963.35" stroke="#132e65" stroke-width="1.5"></path><path d="M482.95 963.35L482.95 963.35" stroke="#132e65" stroke-width="1.5"></path><path d="M482.95 963.35L616.85 970.52" stroke="#132e65" stroke-width="1.5"></path><path d="M615.05 -78.16L615.05 -78.16" stroke="#132e65" stroke-width="1.5"></path><path d="M615.05 -78.16L705.83 -52.75" stroke="#132e65" stroke-width="1.5"></path><path d="M615.05 -78.16L643.34 41.94" stroke="#132e65" stroke-width="1.5"></path><path d="M615.05 -78.16L528.94 72.93" stroke="#132e65" stroke-width="1.5"></path><path d="M643.34 41.94L643.34 41.94" stroke="#132e65" stroke-width="1.5"></path><path d="M643.34 41.94L613.55 147.54" stroke="#132e65" stroke-width="1.5"></path><path d="M643.34 41.94L705.83 -52.75" stroke="#132e65" stroke-width="1.5"></path><path d="M643.34 41.94L528.94 72.93" stroke="#132e65" stroke-width="1.5"></path><path d="M613.55 147.54L613.55 147.54" stroke="#132e65" stroke-width="1.5"></path><path d="M613.55 147.54L720.52 190.17" stroke="#132e65" stroke-width="1.5"></path><path d="M616.71 293.72L616.71 293.72" stroke="#132e65" stroke-width="1.5"></path><path d="M616.71 293.72L640.78 371.23" stroke="#132e65" stroke-width="1.5"></path><path d="M616.71 293.72L713.09 289.96" stroke="#132e65" stroke-width="1.5"></path><path d="M616.71 293.72L613.55 147.54" stroke="#132e65" stroke-width="1.5"></path><path d="M616.71 293.72L720.52 190.17" stroke="#132e65" stroke-width="1.5"></path><path d="M616.71 293.72L717.7 418.53" stroke="#132e65" stroke-width="1.5"></path><path d="M640.78 371.23L640.78 371.23" stroke="#132e65" stroke-width="1.5"></path><path d="M640.78 371.23L717.7 418.53" stroke="#132e65" stroke-width="1.5"></path><path d="M640.78 371.23L713.09 289.96" stroke="#132e65" stroke-width="1.5"></path><path d="M640.78 371.23L495.86 288.59" stroke="#132e65" stroke-width="1.5"></path><path d="M597.59 533.89L597.59 533.89" stroke="#132e65" stroke-width="1.5"></path><path d="M597.59 533.89L592.26 609.4" stroke="#132e65" stroke-width="1.5"></path><path d="M592.26 609.4L592.26 609.4" stroke="#132e65" stroke-width="1.5"></path><path d="M592.26 609.4L615.6 721.53" stroke="#132e65" stroke-width="1.5"></path><path d="M592.26 609.4L714.19 643.34" stroke="#132e65" stroke-width="1.5"></path><path d="M615.6 721.53L615.6 721.53" stroke="#132e65" stroke-width="1.5"></path><path d="M615.6 721.53L708.52 709.38" stroke="#132e65" stroke-width="1.5"></path><path d="M637.38 837.91L637.38 837.91" stroke="#132e65" stroke-width="1.5"></path><path d="M637.38 837.91L704.03 866.42" stroke="#132e65" stroke-width="1.5"></path><path d="M616.85 970.52L616.85 970.52" stroke="#132e65" stroke-width="1.5"></path><path d="M616.85 970.52L637.38 837.91" stroke="#132e65" stroke-width="1.5"></path><path d="M616.85 970.52L704.03 866.42" stroke="#132e65" stroke-width="1.5"></path><path d="M616.85 970.52L752.71 955.8" stroke="#132e65" stroke-width="1.5"></path><path d="M705.83 -52.75L705.83 -52.75" stroke="#132e65" stroke-width="1.5"></path><path d="M705.83 -52.75L505.78 -71.82" stroke="#132e65" stroke-width="1.5"></path><path d="M720.52 190.17L720.52 190.17" stroke="#132e65" stroke-width="1.5"></path><path d="M720.52 190.17L713.09 289.96" stroke="#132e65" stroke-width="1.5"></path><path d="M720.52 190.17L643.34 41.94" stroke="#132e65" stroke-width="1.5"></path><path d="M720.52 190.17L640.78 371.23" stroke="#132e65" stroke-width="1.5"></path><path d="M720.52 190.17L528.94 72.93" stroke="#132e65" stroke-width="1.5"></path><path d="M713.09 289.96L713.09 289.96" stroke="#132e65" stroke-width="1.5"></path><path d="M713.09 289.96L717.7 418.53" stroke="#132e65" stroke-width="1.5"></path><path d="M713.09 289.96L613.55 147.54" stroke="#132e65" stroke-width="1.5"></path><path d="M713.09 289.96L495.86 288.59" stroke="#132e65" stroke-width="1.5"></path><path d="M717.7 418.53L717.7 418.53" stroke="#132e65" stroke-width="1.5"></path><path d="M717.7 418.53L749.92 529.74" stroke="#132e65" stroke-width="1.5"></path><path d="M717.7 418.53L597.59 533.89" stroke="#132e65" stroke-width="1.5"></path><path d="M717.7 418.53L714.19 643.34" stroke="#132e65" stroke-width="1.5"></path><path d="M749.92 529.74L749.92 529.74" stroke="#132e65" stroke-width="1.5"></path><path d="M749.92 529.74L714.19 643.34" stroke="#132e65" stroke-width="1.5"></path><path d="M749.92 529.74L597.59 533.89" stroke="#132e65" stroke-width="1.5"></path><path d="M749.92 529.74L592.26 609.4" stroke="#132e65" stroke-width="1.5"></path><path d="M749.92 529.74L708.52 709.38" stroke="#132e65" stroke-width="1.5"></path><path d="M714.19 643.34L714.19 643.34" stroke="#132e65" stroke-width="1.5"></path><path d="M714.19 643.34L708.52 709.38" stroke="#132e65" stroke-width="1.5"></path><path d="M714.19 643.34L615.6 721.53" stroke="#132e65" stroke-width="1.5"></path><path d="M708.52 709.38L708.52 709.38" stroke="#132e65" stroke-width="1.5"></path><path d="M708.52 709.38L637.38 837.91" stroke="#132e65" stroke-width="1.5"></path><path d="M708.52 709.38L592.26 609.4" stroke="#132e65" stroke-width="1.5"></path><path d="M708.52 709.38L704.03 866.42" stroke="#132e65" stroke-width="1.5"></path><path d="M704.03 866.42L704.03 866.42" stroke="#132e65" stroke-width="1.5"></path><path d="M704.03 866.42L752.71 955.8" stroke="#132e65" stroke-width="1.5"></path><path d="M752.71 955.8L752.71 955.8" stroke="#132e65" stroke-width="1.5"></path><path d="M752.71 955.8L637.38 837.91" stroke="#132e65" stroke-width="1.5"></path><path d="M752.71 955.8L532.64 845.26" stroke="#132e65" stroke-width="1.5"></path><path d="M752.71 955.8L708.52 709.38" stroke="#132e65" stroke-width="1.5"></path><circle r="5" cx="-55.15" cy="630.33" fill="#132e65"></circle><circle r="5" cx="-35" cy="752.8" fill="#132e65"></circle><circle r="5" cx="-49.87" cy="834.77" fill="#132e65"></circle><circle r="5" cx="-51.45" cy="956.22" fill="#132e65"></circle><circle r="5" cx="49.65" cy="637.74" fill="#132e65"></circle><circle r="5" cx="82.69" cy="755.55" fill="#132e65"></circle><circle r="5" cx="49.83" cy="847.62" fill="#132e65"></circle><circle r="5" cx="50.65" cy="969.31" fill="#132e65"></circle><circle r="5" cx="141.16" cy="636.5" fill="#132e65"></circle><circle r="5" cx="176.21" cy="726.43" fill="#132e65"></circle><circle r="5" cx="186.76" cy="840.67" fill="#132e65"></circle><circle r="5" cx="265.35" cy="505.52" fill="#132e65"></circle><circle r="5" cx="304.65" cy="609.5" fill="#132e65"></circle><circle r="5" cx="286.96" cy="744.19" fill="#132e65"></circle><circle r="5" cx="302.17" cy="868.04" fill="#132e65"></circle><circle r="5" cx="293.48" cy="968.29" fill="#132e65"></circle><circle r="5" cx="415.38" cy="42.01" fill="#132e65"></circle><circle r="5" cx="403.24" cy="192.62" fill="#132e65"></circle><circle r="5" cx="418.95" cy="380.72" fill="#132e65"></circle><circle r="5" cx="384.97" cy="487.09" fill="#132e65"></circle><circle r="5" cx="383.34" cy="630.88" fill="#132e65"></circle><circle r="5" cx="377.64" cy="746.82" fill="#132e65"></circle><circle r="5" cx="373.4" cy="860.4" fill="#132e65"></circle><circle r="5" cx="505.78" cy="-71.82" fill="#132e65"></circle><circle r="5" cx="528.94" cy="72.93" fill="#132e65"></circle><circle r="5" cx="495.82" cy="158.19" fill="#132e65"></circle><circle r="5" cx="495.86" cy="288.59" fill="#132e65"></circle><circle r="5" cx="491.1" cy="403.09" fill="#132e65"></circle><circle r="5" cx="481.68" cy="490" fill="#132e65"></circle><circle r="5" cx="511.19" cy="643.02" fill="#132e65"></circle><circle r="5" cx="504.78" cy="718.08" fill="#132e65"></circle><circle r="5" cx="532.64" cy="845.26" fill="#132e65"></circle><circle r="5" cx="482.95" cy="963.35" fill="#132e65"></circle><circle r="5" cx="615.05" cy="-78.16" fill="#132e65"></circle><circle r="5" cx="643.34" cy="41.94" fill="#132e65"></circle><circle r="5" cx="613.55" cy="147.54" fill="#132e65"></circle><circle r="5" cx="616.71" cy="293.72" fill="#132e65"></circle><circle r="5" cx="640.78" cy="371.23" fill="#132e65"></circle><circle r="5" cx="597.59" cy="533.89" fill="#132e65"></circle><circle r="5" cx="592.26" cy="609.4" fill="#132e65"></circle><circle r="5" cx="615.6" cy="721.53" fill="#132e65"></circle><circle r="5" cx="637.38" cy="837.91" fill="#132e65"></circle><circle r="5" cx="616.85" cy="970.52" fill="#132e65"></circle><circle r="5" cx="705.83" cy="-52.75" fill="#132e65"></circle><circle r="5" cx="720.52" cy="190.17" fill="#132e65"></circle><circle r="5" cx="713.09" cy="289.96" fill="#132e65"></circle><circle r="5" cx="717.7" cy="418.53" fill="#132e65"></circle><circle r="5" cx="749.92" cy="529.74" fill="#132e65"></circle><circle r="5" cx="714.19" cy="643.34" fill="#132e65"></circle><circle r="5" cx="708.52" cy="709.38" fill="#132e65"></circle><circle r="5" cx="704.03" cy="866.42" fill="#132e65"></circle><circle r="5" cx="752.71" cy="955.8" fill="#132e65"></circle><path d="M-57.71 929.66L-57.71 929.66" stroke="hsl(228.5, 77.2%, 51.5%)" stroke-width="1.5"></path><path d="M-57.71 929.66L-59.68 861.63" stroke="hsl(228.5, 77.2%, 51.5%)" stroke-width="1.5"></path><path d="M-57.71 929.66L42.96 867.2" stroke="hsl(228.5, 77.2%, 51.5%)" stroke-width="1.5"></path><path d="M416.6 721.15L416.6 721.15" stroke="hsl(228.5, 77.2%, 51.5%)" stroke-width="1.5"></path><path d="M416.6 721.15L404.07 833.08" stroke="hsl(228.5, 77.2%, 51.5%)" stroke-width="1.5"></path><path d="M416.6 721.15L526.75 758.38" stroke="hsl(228.5, 77.2%, 51.5%)" stroke-width="1.5"></path><path d="M416.6 721.15L502.17 614.89" stroke="hsl(228.5, 77.2%, 51.5%)" stroke-width="1.5"></path><path d="M502.17 614.89L502.17 614.89" stroke="hsl(228.5, 77.2%, 51.5%)" stroke-width="1.5"></path><path d="M502.17 614.89L479.99 529.4" stroke="hsl(228.5, 77.2%, 51.5%)" stroke-width="1.5"></path><path d="M502.17 614.89L368.14 590.75" stroke="hsl(228.5, 77.2%, 51.5%)" stroke-width="1.5"></path><path d="M502.17 614.89L389.96 526.45" stroke="hsl(228.5, 77.2%, 51.5%)" stroke-width="1.5"></path><path d="M502.17 614.89L526.75 758.38" stroke="hsl(228.5, 77.2%, 51.5%)" stroke-width="1.5"></path><path d="M502.17 614.89L633.36 528.97" stroke="hsl(228.5, 77.2%, 51.5%)" stroke-width="1.5"></path><path d="M531.67 974.35L531.67 974.35" stroke="hsl(228.5, 77.2%, 51.5%)" stroke-width="1.5"></path><path d="M531.67 974.35L603.83 963.01" stroke="hsl(228.5, 77.2%, 51.5%)" stroke-width="1.5"></path><path d="M531.67 974.35L500.86 844.19" stroke="hsl(228.5, 77.2%, 51.5%)" stroke-width="1.5"></path><path d="M531.67 974.35L398.74 947.08" stroke="hsl(228.5, 77.2%, 51.5%)" stroke-width="1.5"></path><path d="M531.67 974.35L617.75 861.51" stroke="hsl(228.5, 77.2%, 51.5%)" stroke-width="1.5"></path><path d="M531.67 974.35L707.83 928.91" stroke="hsl(228.5, 77.2%, 51.5%)" stroke-width="1.5"></path><path d="M531.67 974.35L404.07 833.08" stroke="hsl(228.5, 77.2%, 51.5%)" stroke-width="1.5"></path><path d="M621.35 191.25L621.35 191.25" stroke="hsl(228.5, 77.2%, 51.5%)" stroke-width="1.5"></path><path d="M621.35 191.25L728.75 186.93" stroke="hsl(228.5, 77.2%, 51.5%)" stroke-width="1.5"></path><path d="M621.35 191.25L600.79 297.6" stroke="hsl(228.5, 77.2%, 51.5%)" stroke-width="1.5"></path><path d="M713.35 400.18L713.35 400.18" stroke="hsl(228.5, 77.2%, 51.5%)" stroke-width="1.5"></path><path d="M713.35 400.18L743.94 504.88" stroke="hsl(228.5, 77.2%, 51.5%)" stroke-width="1.5"></path><path d="M713.35 400.18L602.73 368.78" stroke="hsl(228.5, 77.2%, 51.5%)" stroke-width="1.5"></path><path d="M713.35 400.18L757.57 273.02" stroke="hsl(228.5, 77.2%, 51.5%)" stroke-width="1.5"></path><path d="M713.35 400.18L633.36 528.97" stroke="hsl(228.5, 77.2%, 51.5%)" stroke-width="1.5"></path><path d="M752.76 632.21L752.76 632.21" stroke="hsl(228.5, 77.2%, 51.5%)" stroke-width="1.5"></path><path d="M752.76 632.21L751.24 754.73" stroke="hsl(228.5, 77.2%, 51.5%)" stroke-width="1.5"></path><path d="M752.76 632.21L743.94 504.88" stroke="hsl(228.5, 77.2%, 51.5%)" stroke-width="1.5"></path><path d="M752.76 632.21L634.01 722.64" stroke="hsl(228.5, 77.2%, 51.5%)" stroke-width="1.5"></path><path d="M-28.42 734.8L-28.42 734.8" stroke="hsl(228.5, 77.2%, 51.5%)" stroke-width="1.5"></path><path d="M-28.42 734.8L78.6 730.43" stroke="hsl(228.5, 77.2%, 51.5%)" stroke-width="1.5"></path><path d="M-28.42 734.8L-59.68 861.63" stroke="hsl(228.5, 77.2%, 51.5%)" stroke-width="1.5"></path><path d="M-28.42 734.8L42.96 867.2" stroke="hsl(228.5, 77.2%, 51.5%)" stroke-width="1.5"></path><path d="M-28.42 734.8L145.49 737.48" stroke="hsl(228.5, 77.2%, 51.5%)" stroke-width="1.5"></path><path d="M-28.42 734.8L-57.71 929.66" stroke="hsl(228.5, 77.2%, 51.5%)" stroke-width="1.5"></path><path d="M-28.42 734.8L190.79 826.05" stroke="hsl(228.5, 77.2%, 51.5%)" stroke-width="1.5"></path><path d="M-59.68 861.63L-59.68 861.63" stroke="hsl(228.5, 77.2%, 51.5%)" stroke-width="1.5"></path><path d="M-59.68 861.63L42.96 867.2" stroke="hsl(228.5, 77.2%, 51.5%)" stroke-width="1.5"></path><path d="M78.6 730.43L78.6 730.43" stroke="hsl(228.5, 77.2%, 51.5%)" stroke-width="1.5"></path><path d="M78.6 730.43L145.49 737.48" stroke="hsl(228.5, 77.2%, 51.5%)" stroke-width="1.5"></path><path d="M42.96 867.2L42.96 867.2" stroke="hsl(228.5, 77.2%, 51.5%)" stroke-width="1.5"></path><path d="M42.96 867.2L72.77 950.13" stroke="hsl(228.5, 77.2%, 51.5%)" stroke-width="1.5"></path><path d="M72.77 950.13L72.77 950.13" stroke="hsl(228.5, 77.2%, 51.5%)" stroke-width="1.5"></path><path d="M72.77 950.13L176.29 961.34" stroke="hsl(228.5, 77.2%, 51.5%)" stroke-width="1.5"></path><path d="M72.77 950.13L-57.71 929.66" stroke="hsl(228.5, 77.2%, 51.5%)" stroke-width="1.5"></path><path d="M72.77 950.13L-59.68 861.63" stroke="hsl(228.5, 77.2%, 51.5%)" stroke-width="1.5"></path><path d="M72.77 950.13L190.79 826.05" stroke="hsl(228.5, 77.2%, 51.5%)" stroke-width="1.5"></path><path d="M145.49 737.48L145.49 737.48" stroke="hsl(228.5, 77.2%, 51.5%)" stroke-width="1.5"></path><path d="M145.49 737.48L190.79 826.05" stroke="hsl(228.5, 77.2%, 51.5%)" stroke-width="1.5"></path><path d="M145.49 737.48L261.62 756.5" stroke="hsl(228.5, 77.2%, 51.5%)" stroke-width="1.5"></path><path d="M145.49 737.48L42.96 867.2" stroke="hsl(228.5, 77.2%, 51.5%)" stroke-width="1.5"></path><path d="M145.49 737.48L293.37 866.34" stroke="hsl(228.5, 77.2%, 51.5%)" stroke-width="1.5"></path><path d="M190.79 826.05L190.79 826.05" stroke="hsl(228.5, 77.2%, 51.5%)" stroke-width="1.5"></path><path d="M190.79 826.05L261.62 756.5" stroke="hsl(228.5, 77.2%, 51.5%)" stroke-width="1.5"></path><path d="M190.79 826.05L293.37 866.34" stroke="hsl(228.5, 77.2%, 51.5%)" stroke-width="1.5"></path><path d="M190.79 826.05L256.29 935.81" stroke="hsl(228.5, 77.2%, 51.5%)" stroke-width="1.5"></path><path d="M190.79 826.05L176.29 961.34" stroke="hsl(228.5, 77.2%, 51.5%)" stroke-width="1.5"></path><path d="M190.79 826.05L78.6 730.43" stroke="hsl(228.5, 77.2%, 51.5%)" stroke-width="1.5"></path><path d="M176.29 961.34L176.29 961.34" stroke="hsl(228.5, 77.2%, 51.5%)" stroke-width="1.5"></path><path d="M176.29 961.34L256.29 935.81" stroke="hsl(228.5, 77.2%, 51.5%)" stroke-width="1.5"></path><path d="M261.62 756.5L261.62 756.5" stroke="hsl(228.5, 77.2%, 51.5%)" stroke-width="1.5"></path><path d="M261.62 756.5L293.37 866.34" stroke="hsl(228.5, 77.2%, 51.5%)" stroke-width="1.5"></path><path d="M293.37 866.34L293.37 866.34" stroke="hsl(228.5, 77.2%, 51.5%)" stroke-width="1.5"></path><path d="M293.37 866.34L256.29 935.81" stroke="hsl(228.5, 77.2%, 51.5%)" stroke-width="1.5"></path><path d="M256.29 935.81L256.29 935.81" stroke="hsl(228.5, 77.2%, 51.5%)" stroke-width="1.5"></path><path d="M256.29 935.81L398.74 947.08" stroke="hsl(228.5, 77.2%, 51.5%)" stroke-width="1.5"></path><path d="M256.29 935.81L261.62 756.5" stroke="hsl(228.5, 77.2%, 51.5%)" stroke-width="1.5"></path><path d="M389.96 526.45L389.96 526.45" stroke="hsl(228.5, 77.2%, 51.5%)" stroke-width="1.5"></path><path d="M389.96 526.45L368.14 590.75" stroke="hsl(228.5, 77.2%, 51.5%)" stroke-width="1.5"></path><path d="M368.14 590.75L368.14 590.75" stroke="hsl(228.5, 77.2%, 51.5%)" stroke-width="1.5"></path><path d="M368.14 590.75L479.99 529.4" stroke="hsl(228.5, 77.2%, 51.5%)" stroke-width="1.5"></path><path d="M368.14 590.75L416.6 721.15" stroke="hsl(228.5, 77.2%, 51.5%)" stroke-width="1.5"></path><path d="M368.14 590.75L261.62 756.5" stroke="hsl(228.5, 77.2%, 51.5%)" stroke-width="1.5"></path><path d="M404.07 833.08L404.07 833.08" stroke="hsl(228.5, 77.2%, 51.5%)" stroke-width="1.5"></path><path d="M404.07 833.08L500.86 844.19" stroke="hsl(228.5, 77.2%, 51.5%)" stroke-width="1.5"></path><path d="M404.07 833.08L398.74 947.08" stroke="hsl(228.5, 77.2%, 51.5%)" stroke-width="1.5"></path><path d="M398.74 947.08L398.74 947.08" stroke="hsl(228.5, 77.2%, 51.5%)" stroke-width="1.5"></path><path d="M398.74 947.08L293.37 866.34" stroke="hsl(228.5, 77.2%, 51.5%)" stroke-width="1.5"></path><path d="M503.68 292.08L503.68 292.08" stroke="hsl(228.5, 77.2%, 51.5%)" stroke-width="1.5"></path><path d="M503.68 292.08L600.79 297.6" stroke="hsl(228.5, 77.2%, 51.5%)" stroke-width="1.5"></path><path d="M503.68 292.08L504.48 401.03" stroke="hsl(228.5, 77.2%, 51.5%)" stroke-width="1.5"></path><path d="M503.68 292.08L602.73 368.78" stroke="hsl(228.5, 77.2%, 51.5%)" stroke-width="1.5"></path><path d="M503.68 292.08L621.35 191.25" stroke="hsl(228.5, 77.2%, 51.5%)" stroke-width="1.5"></path><path d="M504.48 401.03L504.48 401.03" stroke="hsl(228.5, 77.2%, 51.5%)" stroke-width="1.5"></path><path d="M504.48 401.03L602.73 368.78" stroke="hsl(228.5, 77.2%, 51.5%)" stroke-width="1.5"></path><path d="M479.99 529.4L479.99 529.4" stroke="hsl(228.5, 77.2%, 51.5%)" stroke-width="1.5"></path><path d="M479.99 529.4L389.96 526.45" stroke="hsl(228.5, 77.2%, 51.5%)" stroke-width="1.5"></path><path d="M479.99 529.4L504.48 401.03" stroke="hsl(228.5, 77.2%, 51.5%)" stroke-width="1.5"></path><path d="M479.99 529.4L633.36 528.97" stroke="hsl(228.5, 77.2%, 51.5%)" stroke-width="1.5"></path><path d="M526.75 758.38L526.75 758.38" stroke="hsl(228.5, 77.2%, 51.5%)" stroke-width="1.5"></path><path d="M526.75 758.38L500.86 844.19" stroke="hsl(228.5, 77.2%, 51.5%)" stroke-width="1.5"></path><path d="M526.75 758.38L634.01 722.64" stroke="hsl(228.5, 77.2%, 51.5%)" stroke-width="1.5"></path><path d="M500.86 844.19L500.86 844.19" stroke="hsl(228.5, 77.2%, 51.5%)" stroke-width="1.5"></path><path d="M500.86 844.19L617.75 861.51" stroke="hsl(228.5, 77.2%, 51.5%)" stroke-width="1.5"></path><path d="M619.17 -51.87L619.17 -51.87" stroke="hsl(228.5, 77.2%, 51.5%)" stroke-width="1.5"></path><path d="M619.17 -51.87L615.67 66.55" stroke="hsl(228.5, 77.2%, 51.5%)" stroke-width="1.5"></path><path d="M619.17 -51.87L746.5 -52.23" stroke="hsl(228.5, 77.2%, 51.5%)" stroke-width="1.5"></path><path d="M619.17 -51.87L704.34 42.81" stroke="hsl(228.5, 77.2%, 51.5%)" stroke-width="1.5"></path><path d="M615.67 66.55L615.67 66.55" stroke="hsl(228.5, 77.2%, 51.5%)" stroke-width="1.5"></path><path d="M615.67 66.55L704.34 42.81" stroke="hsl(228.5, 77.2%, 51.5%)" stroke-width="1.5"></path><path d="M615.67 66.55L621.35 191.25" stroke="hsl(228.5, 77.2%, 51.5%)" stroke-width="1.5"></path><path d="M615.67 66.55L728.75 186.93" stroke="hsl(228.5, 77.2%, 51.5%)" stroke-width="1.5"></path><path d="M600.79 297.6L600.79 297.6" stroke="hsl(228.5, 77.2%, 51.5%)" stroke-width="1.5"></path><path d="M600.79 297.6L602.73 368.78" stroke="hsl(228.5, 77.2%, 51.5%)" stroke-width="1.5"></path><path d="M602.73 368.78L602.73 368.78" stroke="hsl(228.5, 77.2%, 51.5%)" stroke-width="1.5"></path><path d="M602.73 368.78L633.36 528.97" stroke="hsl(228.5, 77.2%, 51.5%)" stroke-width="1.5"></path><path d="M633.36 528.97L633.36 528.97" stroke="hsl(228.5, 77.2%, 51.5%)" stroke-width="1.5"></path><path d="M633.36 528.97L743.94 504.88" stroke="hsl(228.5, 77.2%, 51.5%)" stroke-width="1.5"></path><path d="M633.36 528.97L752.76 632.21" stroke="hsl(228.5, 77.2%, 51.5%)" stroke-width="1.5"></path><path d="M634.01 722.64L634.01 722.64" stroke="hsl(228.5, 77.2%, 51.5%)" stroke-width="1.5"></path><path d="M634.01 722.64L751.24 754.73" stroke="hsl(228.5, 77.2%, 51.5%)" stroke-width="1.5"></path><path d="M634.01 722.64L617.75 861.51" stroke="hsl(228.5, 77.2%, 51.5%)" stroke-width="1.5"></path><path d="M634.01 722.64L502.17 614.89" stroke="hsl(228.5, 77.2%, 51.5%)" stroke-width="1.5"></path><path d="M634.01 722.64L500.86 844.19" stroke="hsl(228.5, 77.2%, 51.5%)" stroke-width="1.5"></path><path d="M617.75 861.51L617.75 861.51" stroke="hsl(228.5, 77.2%, 51.5%)" stroke-width="1.5"></path><path d="M617.75 861.51L603.83 963.01" stroke="hsl(228.5, 77.2%, 51.5%)" stroke-width="1.5"></path><path d="M617.75 861.51L707.83 928.91" stroke="hsl(228.5, 77.2%, 51.5%)" stroke-width="1.5"></path><path d="M603.83 963.01L603.83 963.01" stroke="hsl(228.5, 77.2%, 51.5%)" stroke-width="1.5"></path><path d="M603.83 963.01L707.83 928.91" stroke="hsl(228.5, 77.2%, 51.5%)" stroke-width="1.5"></path><path d="M603.83 963.01L500.86 844.19" stroke="hsl(228.5, 77.2%, 51.5%)" stroke-width="1.5"></path><path d="M603.83 963.01L398.74 947.08" stroke="hsl(228.5, 77.2%, 51.5%)" stroke-width="1.5"></path><path d="M603.83 963.01L526.75 758.38" stroke="hsl(228.5, 77.2%, 51.5%)" stroke-width="1.5"></path><path d="M746.5 -52.23L746.5 -52.23" stroke="hsl(228.5, 77.2%, 51.5%)" stroke-width="1.5"></path><path d="M746.5 -52.23L704.34 42.81" stroke="hsl(228.5, 77.2%, 51.5%)" stroke-width="1.5"></path><path d="M746.5 -52.23L615.67 66.55" stroke="hsl(228.5, 77.2%, 51.5%)" stroke-width="1.5"></path><path d="M746.5 -52.23L728.75 186.93" stroke="hsl(228.5, 77.2%, 51.5%)" stroke-width="1.5"></path><path d="M704.34 42.81L704.34 42.81" stroke="hsl(228.5, 77.2%, 51.5%)" stroke-width="1.5"></path><path d="M728.75 186.93L728.75 186.93" stroke="hsl(228.5, 77.2%, 51.5%)" stroke-width="1.5"></path><path d="M728.75 186.93L757.57 273.02" stroke="hsl(228.5, 77.2%, 51.5%)" stroke-width="1.5"></path><path d="M728.75 186.93L704.34 42.81" stroke="hsl(228.5, 77.2%, 51.5%)" stroke-width="1.5"></path><path d="M757.57 273.02L757.57 273.02" stroke="hsl(228.5, 77.2%, 51.5%)" stroke-width="1.5"></path><path d="M743.94 504.88L743.94 504.88" stroke="hsl(228.5, 77.2%, 51.5%)" stroke-width="1.5"></path><path d="M743.94 504.88L602.73 368.78" stroke="hsl(228.5, 77.2%, 51.5%)" stroke-width="1.5"></path><path d="M743.94 504.88L757.57 273.02" stroke="hsl(228.5, 77.2%, 51.5%)" stroke-width="1.5"></path><path d="M743.94 504.88L634.01 722.64" stroke="hsl(228.5, 77.2%, 51.5%)" stroke-width="1.5"></path><path d="M751.24 754.73L751.24 754.73" stroke="hsl(228.5, 77.2%, 51.5%)" stroke-width="1.5"></path><path d="M751.24 754.73L617.75 861.51" stroke="hsl(228.5, 77.2%, 51.5%)" stroke-width="1.5"></path><path d="M751.24 754.73L707.83 928.91" stroke="hsl(228.5, 77.2%, 51.5%)" stroke-width="1.5"></path><path d="M751.24 754.73L526.75 758.38" stroke="hsl(228.5, 77.2%, 51.5%)" stroke-width="1.5"></path><path d="M707.83 928.91L707.83 928.91" stroke="hsl(228.5, 77.2%, 51.5%)" stroke-width="1.5"></path><path d="M707.83 928.91L634.01 722.64" stroke="hsl(228.5, 77.2%, 51.5%)" stroke-width="1.5"></path><circle r="25" cx="-57.71" cy="929.66" fill="url(#SvgjsRadialGradient2620)"></circle><circle r="25" cx="416.6" cy="721.15" fill="url(#SvgjsRadialGradient2620)"></circle><circle r="25" cx="502.17" cy="614.89" fill="url(#SvgjsRadialGradient2620)"></circle><circle r="25" cx="531.67" cy="974.35" fill="url(#SvgjsRadialGradient2620)"></circle><circle r="25" cx="621.35" cy="191.25" fill="url(#SvgjsRadialGradient2620)"></circle><circle r="25" cx="713.35" cy="400.18" fill="url(#SvgjsRadialGradient2620)"></circle><circle r="25" cx="752.76" cy="632.21" fill="url(#SvgjsRadialGradient2620)"></circle><circle r="5" cx="-28.42" cy="734.8" fill="#8b9ad9"></circle><circle r="5" cx="-59.68" cy="861.63" fill="#8b9ad9"></circle><circle r="5" cx="78.6" cy="730.43" fill="#8b9ad9"></circle><circle r="5" cx="42.96" cy="867.2" fill="#8b9ad9"></circle><circle r="5" cx="72.77" cy="950.13" fill="#8b9ad9"></circle><circle r="5" cx="145.49" cy="737.48" fill="#8b9ad9"></circle><circle r="5" cx="190.79" cy="826.05" fill="#8b9ad9"></circle><circle r="5" cx="176.29" cy="961.34" fill="#8b9ad9"></circle><circle r="5" cx="261.62" cy="756.5" fill="#8b9ad9"></circle><circle r="5" cx="293.37" cy="866.34" fill="#8b9ad9"></circle><circle r="5" cx="256.29" cy="935.81" fill="#8b9ad9"></circle><circle r="5" cx="389.96" cy="526.45" fill="#8b9ad9"></circle><circle r="5" cx="368.14" cy="590.75" fill="#8b9ad9"></circle><circle r="5" cx="404.07" cy="833.08" fill="#8b9ad9"></circle><circle r="5" cx="398.74" cy="947.08" fill="#8b9ad9"></circle><circle r="5" cx="503.68" cy="292.08" fill="#8b9ad9"></circle><circle r="5" cx="504.48" cy="401.03" fill="#8b9ad9"></circle><circle r="5" cx="479.99" cy="529.4" fill="#8b9ad9"></circle><circle r="5" cx="526.75" cy="758.38" fill="#8b9ad9"></circle><circle r="5" cx="500.86" cy="844.19" fill="#8b9ad9"></circle><circle r="5" cx="619.17" cy="-51.87" fill="#8b9ad9"></circle><circle r="5" cx="615.67" cy="66.55" fill="#8b9ad9"></circle><circle r="5" cx="600.79" cy="297.6" fill="#8b9ad9"></circle><circle r="5" cx="602.73" cy="368.78" fill="#8b9ad9"></circle><circle r="5" cx="633.36" cy="528.97" fill="#8b9ad9"></circle><circle r="5" cx="634.01" cy="722.64" fill="#8b9ad9"></circle><circle r="5" cx="617.75" cy="861.51" fill="#8b9ad9"></circle><circle r="5" cx="603.83" cy="963.01" fill="#8b9ad9"></circle><circle r="5" cx="746.5" cy="-52.23" fill="#8b9ad9"></circle><circle r="5" cx="704.34" cy="42.81" fill="#8b9ad9"></circle><circle r="5" cx="728.75" cy="186.93" fill="#8b9ad9"></circle><circle r="5" cx="757.57" cy="273.02" fill="#8b9ad9"></circle><circle r="5" cx="743.94" cy="504.88" fill="#8b9ad9"></circle><circle r="5" cx="751.24" cy="754.73" fill="#8b9ad9"></circle><circle r="5" cx="707.83" cy="928.91" fill="#8b9ad9"></circle></g><defs><mask id="SvgjsMask2619"><rect width="657" height="900" fill="#ffffff"></rect></mask><radialGradient id="SvgjsRadialGradient2620"><stop stop-color="#ffffff" offset="0.1"></stop><stop stop-color="#1735b3" offset="0.2"></stop><stop stop-color="rgba(23, 53, 179, 0)" offset="1"></stop></radialGradient></defs></svg>