<svg xmlns="http://www.w3.org/2000/svg" version="1.1" xmlns:xlink="http://www.w3.org/1999/xlink" xmlns:svgjs="http://svgjs.com/svgjs" width="1440" height="900" preserveAspectRatio="none" viewBox="0 0 1440 900"><g mask="url(&quot;#SvgjsMask1752&quot;)" fill="none"><path d="M-97.42 557.65L-97.42 557.65" stroke="rgba(97, 82, 238, 1)" stroke-width="1.5"></path><path d="M-97.42 557.65L-111.57 675.09" stroke="rgba(97, 82, 238, 1)" stroke-width="1.5"></path><path d="M-97.42 557.65L65.57 645.21" stroke="rgba(97, 82, 238, 1)" stroke-width="1.5"></path><path d="M-97.42 557.65L-108.92 799.13" stroke="rgba(97, 82, 238, 1)" stroke-width="1.5"></path><path d="M-97.42 557.65L90.65 818.31" stroke="rgba(97, 82, 238, 1)" stroke-width="1.5"></path><path d="M-97.42 557.65L261.06 706.73" stroke="rgba(97, 82, 238, 1)" stroke-width="1.5"></path><path d="M-97.42 557.65L213.97 823.73" stroke="rgba(97, 82, 238, 1)" stroke-width="1.5"></path><path d="M-111.57 675.09L-111.57 675.09" stroke="rgba(97, 82, 238, 1)" stroke-width="1.5"></path><path d="M-111.57 675.09L-108.92 799.13" stroke="rgba(97, 82, 238, 1)" stroke-width="1.5"></path><path d="M-111.57 675.09L65.57 645.21" stroke="rgba(97, 82, 238, 1)" stroke-width="1.5"></path><path d="M-111.57 675.09L90.65 818.31" stroke="rgba(97, 82, 238, 1)" stroke-width="1.5"></path><path d="M-111.57 675.09L-65.08 988.6" stroke="rgba(97, 82, 238, 1)" stroke-width="1.5"></path><path d="M-111.57 675.09L85.41 937.67" stroke="rgba(97, 82, 238, 1)" stroke-width="1.5"></path><path d="M-108.92 799.13L-108.92 799.13" stroke="rgba(97, 82, 238, 1)" stroke-width="1.5"></path><path d="M-108.92 799.13L-65.08 988.6" stroke="rgba(97, 82, 238, 1)" stroke-width="1.5"></path><path d="M-108.92 799.13L90.65 818.31" stroke="rgba(97, 82, 238, 1)" stroke-width="1.5"></path><path d="M-108.92 799.13L65.57 645.21" stroke="rgba(97, 82, 238, 1)" stroke-width="1.5"></path><path d="M-65.08 988.6L-65.08 988.6" stroke="rgba(97, 82, 238, 1)" stroke-width="1.5"></path><path d="M-65.08 988.6L85.41 937.67" stroke="rgba(97, 82, 238, 1)" stroke-width="1.5"></path><path d="M-65.08 988.6L90.65 818.31" stroke="rgba(97, 82, 238, 1)" stroke-width="1.5"></path><path d="M65.57 645.21L65.57 645.21" stroke="rgba(97, 82, 238, 1)" stroke-width="1.5"></path><path d="M65.57 645.21L90.65 818.31" stroke="rgba(97, 82, 238, 1)" stroke-width="1.5"></path><path d="M90.65 818.31L90.65 818.31" stroke="rgba(97, 82, 238, 1)" stroke-width="1.5"></path><path d="M90.65 818.31L85.41 937.67" stroke="rgba(97, 82, 238, 1)" stroke-width="1.5"></path><path d="M90.65 818.31L213.97 823.73" stroke="rgba(97, 82, 238, 1)" stroke-width="1.5"></path><path d="M90.65 818.31L230.38 952.9" stroke="rgba(97, 82, 238, 1)" stroke-width="1.5"></path><path d="M90.65 818.31L261.06 706.73" stroke="rgba(97, 82, 238, 1)" stroke-width="1.5"></path><path d="M85.41 937.67L85.41 937.67" stroke="rgba(97, 82, 238, 1)" stroke-width="1.5"></path><path d="M85.41 937.67L230.38 952.9" stroke="rgba(97, 82, 238, 1)" stroke-width="1.5"></path><path d="M85.41 937.67L213.97 823.73" stroke="rgba(97, 82, 238, 1)" stroke-width="1.5"></path><path d="M85.41 937.67L-108.92 799.13" stroke="rgba(97, 82, 238, 1)" stroke-width="1.5"></path><path d="M85.41 937.67L261.06 706.73" stroke="rgba(97, 82, 238, 1)" stroke-width="1.5"></path><path d="M261.06 706.73L261.06 706.73" stroke="rgba(97, 82, 238, 1)" stroke-width="1.5"></path><path d="M261.06 706.73L349.23 677.28" stroke="rgba(97, 82, 238, 1)" stroke-width="1.5"></path><path d="M261.06 706.73L213.97 823.73" stroke="rgba(97, 82, 238, 1)" stroke-width="1.5"></path><path d="M261.06 706.73L369.94 813.35" stroke="rgba(97, 82, 238, 1)" stroke-width="1.5"></path><path d="M213.97 823.73L213.97 823.73" stroke="rgba(97, 82, 238, 1)" stroke-width="1.5"></path><path d="M213.97 823.73L230.38 952.9" stroke="rgba(97, 82, 238, 1)" stroke-width="1.5"></path><path d="M213.97 823.73L369.94 813.35" stroke="rgba(97, 82, 238, 1)" stroke-width="1.5"></path><path d="M230.38 952.9L230.38 952.9" stroke="rgba(97, 82, 238, 1)" stroke-width="1.5"></path><path d="M230.38 952.9L374.67 1003.08" stroke="rgba(97, 82, 238, 1)" stroke-width="1.5"></path><path d="M365.31 558.24L365.31 558.24" stroke="rgba(97, 82, 238, 1)" stroke-width="1.5"></path><path d="M365.31 558.24L349.23 677.28" stroke="rgba(97, 82, 238, 1)" stroke-width="1.5"></path><path d="M365.31 558.24L490.4 543.77" stroke="rgba(97, 82, 238, 1)" stroke-width="1.5"></path><path d="M349.23 677.28L349.23 677.28" stroke="rgba(97, 82, 238, 1)" stroke-width="1.5"></path><path d="M369.94 813.35L369.94 813.35" stroke="rgba(97, 82, 238, 1)" stroke-width="1.5"></path><path d="M369.94 813.35L349.23 677.28" stroke="rgba(97, 82, 238, 1)" stroke-width="1.5"></path><path d="M374.67 1003.08L374.67 1003.08" stroke="rgba(97, 82, 238, 1)" stroke-width="1.5"></path><path d="M374.67 1003.08L369.94 813.35" stroke="rgba(97, 82, 238, 1)" stroke-width="1.5"></path><path d="M374.67 1003.08L213.97 823.73" stroke="rgba(97, 82, 238, 1)" stroke-width="1.5"></path><path d="M374.67 1003.08L536.6 800.57" stroke="rgba(97, 82, 238, 1)" stroke-width="1.5"></path><path d="M374.67 1003.08L85.41 937.67" stroke="rgba(97, 82, 238, 1)" stroke-width="1.5"></path><path d="M490.4 543.77L490.4 543.77" stroke="rgba(97, 82, 238, 1)" stroke-width="1.5"></path><path d="M490.4 543.77L488.21 670.81" stroke="rgba(97, 82, 238, 1)" stroke-width="1.5"></path><path d="M490.4 543.77L659.99 516.43" stroke="rgba(97, 82, 238, 1)" stroke-width="1.5"></path><path d="M490.4 543.77L349.23 677.28" stroke="rgba(97, 82, 238, 1)" stroke-width="1.5"></path><path d="M490.4 543.77L698.45 665.7" stroke="rgba(97, 82, 238, 1)" stroke-width="1.5"></path><path d="M488.21 670.81L488.21 670.81" stroke="rgba(97, 82, 238, 1)" stroke-width="1.5"></path><path d="M488.21 670.81L536.6 800.57" stroke="rgba(97, 82, 238, 1)" stroke-width="1.5"></path><path d="M536.6 800.57L536.6 800.57" stroke="rgba(97, 82, 238, 1)" stroke-width="1.5"></path><path d="M536.6 800.57L669.54 796.18" stroke="rgba(97, 82, 238, 1)" stroke-width="1.5"></path><path d="M536.6 800.57L369.94 813.35" stroke="rgba(97, 82, 238, 1)" stroke-width="1.5"></path><path d="M536.6 800.57L698.45 665.7" stroke="rgba(97, 82, 238, 1)" stroke-width="1.5"></path><path d="M536.6 800.57L349.23 677.28" stroke="rgba(97, 82, 238, 1)" stroke-width="1.5"></path><path d="M689.16 353.38L689.16 353.38" stroke="rgba(97, 82, 238, 1)" stroke-width="1.5"></path><path d="M689.16 353.38L818.64 358.14" stroke="rgba(97, 82, 238, 1)" stroke-width="1.5"></path><path d="M689.16 353.38L817.68 249.67" stroke="rgba(97, 82, 238, 1)" stroke-width="1.5"></path><path d="M689.16 353.38L659.99 516.43" stroke="rgba(97, 82, 238, 1)" stroke-width="1.5"></path><path d="M689.16 353.38L818.61 542.8" stroke="rgba(97, 82, 238, 1)" stroke-width="1.5"></path><path d="M689.16 353.38L490.4 543.77" stroke="rgba(97, 82, 238, 1)" stroke-width="1.5"></path><path d="M659.99 516.43L659.99 516.43" stroke="rgba(97, 82, 238, 1)" stroke-width="1.5"></path><path d="M659.99 516.43L698.45 665.7" stroke="rgba(97, 82, 238, 1)" stroke-width="1.5"></path><path d="M659.99 516.43L818.61 542.8" stroke="rgba(97, 82, 238, 1)" stroke-width="1.5"></path><path d="M659.99 516.43L818.64 358.14" stroke="rgba(97, 82, 238, 1)" stroke-width="1.5"></path><path d="M698.45 665.7L698.45 665.7" stroke="rgba(97, 82, 238, 1)" stroke-width="1.5"></path><path d="M698.45 665.7L797.25 698.84" stroke="rgba(97, 82, 238, 1)" stroke-width="1.5"></path><path d="M698.45 665.7L669.54 796.18" stroke="rgba(97, 82, 238, 1)" stroke-width="1.5"></path><path d="M669.54 796.18L669.54 796.18" stroke="rgba(97, 82, 238, 1)" stroke-width="1.5"></path><path d="M817.68 249.67L817.68 249.67" stroke="rgba(97, 82, 238, 1)" stroke-width="1.5"></path><path d="M817.68 249.67L818.64 358.14" stroke="rgba(97, 82, 238, 1)" stroke-width="1.5"></path><path d="M817.68 249.67L939.56 211.05" stroke="rgba(97, 82, 238, 1)" stroke-width="1.5"></path><path d="M817.68 249.67L970.65 392.18" stroke="rgba(97, 82, 238, 1)" stroke-width="1.5"></path><path d="M817.68 249.67L979.05 41.33" stroke="rgba(97, 82, 238, 1)" stroke-width="1.5"></path><path d="M817.68 249.67L818.61 542.8" stroke="rgba(97, 82, 238, 1)" stroke-width="1.5"></path><path d="M818.64 358.14L818.64 358.14" stroke="rgba(97, 82, 238, 1)" stroke-width="1.5"></path><path d="M818.64 358.14L970.65 392.18" stroke="rgba(97, 82, 238, 1)" stroke-width="1.5"></path><path d="M818.61 542.8L818.61 542.8" stroke="rgba(97, 82, 238, 1)" stroke-width="1.5"></path><path d="M818.61 542.8L943.36 527.42" stroke="rgba(97, 82, 238, 1)" stroke-width="1.5"></path><path d="M818.61 542.8L797.25 698.84" stroke="rgba(97, 82, 238, 1)" stroke-width="1.5"></path><path d="M797.25 698.84L797.25 698.84" stroke="rgba(97, 82, 238, 1)" stroke-width="1.5"></path><path d="M797.25 698.84L814.97 845.03" stroke="rgba(97, 82, 238, 1)" stroke-width="1.5"></path><path d="M797.25 698.84L669.54 796.18" stroke="rgba(97, 82, 238, 1)" stroke-width="1.5"></path><path d="M797.25 698.84L986.59 666.42" stroke="rgba(97, 82, 238, 1)" stroke-width="1.5"></path><path d="M797.25 698.84L979.37 810.2" stroke="rgba(97, 82, 238, 1)" stroke-width="1.5"></path><path d="M814.97 845.03L814.97 845.03" stroke="rgba(97, 82, 238, 1)" stroke-width="1.5"></path><path d="M814.97 845.03L795.69 944.79" stroke="rgba(97, 82, 238, 1)" stroke-width="1.5"></path><path d="M814.97 845.03L669.54 796.18" stroke="rgba(97, 82, 238, 1)" stroke-width="1.5"></path><path d="M795.69 944.79L795.69 944.79" stroke="rgba(97, 82, 238, 1)" stroke-width="1.5"></path><path d="M795.69 944.79L949.51 945.84" stroke="rgba(97, 82, 238, 1)" stroke-width="1.5"></path><path d="M795.69 944.79L669.54 796.18" stroke="rgba(97, 82, 238, 1)" stroke-width="1.5"></path><path d="M795.69 944.79L979.37 810.2" stroke="rgba(97, 82, 238, 1)" stroke-width="1.5"></path><path d="M795.69 944.79L797.25 698.84" stroke="rgba(97, 82, 238, 1)" stroke-width="1.5"></path><path d="M795.69 944.79L698.45 665.7" stroke="rgba(97, 82, 238, 1)" stroke-width="1.5"></path><path d="M938.78 -75.64L938.78 -75.64" stroke="rgba(97, 82, 238, 1)" stroke-width="1.5"></path><path d="M938.78 -75.64L979.05 41.33" stroke="rgba(97, 82, 238, 1)" stroke-width="1.5"></path><path d="M938.78 -75.64L1104.34 -90.71" stroke="rgba(97, 82, 238, 1)" stroke-width="1.5"></path><path d="M938.78 -75.64L1116.64 96.42" stroke="rgba(97, 82, 238, 1)" stroke-width="1.5"></path><path d="M938.78 -75.64L939.56 211.05" stroke="rgba(97, 82, 238, 1)" stroke-width="1.5"></path><path d="M938.78 -75.64L1282.12 -39.03" stroke="rgba(97, 82, 238, 1)" stroke-width="1.5"></path><path d="M979.05 41.33L979.05 41.33" stroke="rgba(97, 82, 238, 1)" stroke-width="1.5"></path><path d="M979.05 41.33L1116.64 96.42" stroke="rgba(97, 82, 238, 1)" stroke-width="1.5"></path><path d="M979.05 41.33L939.56 211.05" stroke="rgba(97, 82, 238, 1)" stroke-width="1.5"></path><path d="M979.05 41.33L1104.34 -90.71" stroke="rgba(97, 82, 238, 1)" stroke-width="1.5"></path><path d="M939.56 211.05L939.56 211.05" stroke="rgba(97, 82, 238, 1)" stroke-width="1.5"></path><path d="M939.56 211.05L970.65 392.18" stroke="rgba(97, 82, 238, 1)" stroke-width="1.5"></path><path d="M939.56 211.05L818.64 358.14" stroke="rgba(97, 82, 238, 1)" stroke-width="1.5"></path><path d="M939.56 211.05L1149.33 204.43" stroke="rgba(97, 82, 238, 1)" stroke-width="1.5"></path><path d="M970.65 392.18L970.65 392.18" stroke="rgba(97, 82, 238, 1)" stroke-width="1.5"></path><path d="M970.65 392.18L1093.17 399.09" stroke="rgba(97, 82, 238, 1)" stroke-width="1.5"></path><path d="M970.65 392.18L943.36 527.42" stroke="rgba(97, 82, 238, 1)" stroke-width="1.5"></path><path d="M943.36 527.42L943.36 527.42" stroke="rgba(97, 82, 238, 1)" stroke-width="1.5"></path><path d="M943.36 527.42L986.59 666.42" stroke="rgba(97, 82, 238, 1)" stroke-width="1.5"></path><path d="M943.36 527.42L1093.17 399.09" stroke="rgba(97, 82, 238, 1)" stroke-width="1.5"></path><path d="M943.36 527.42L1115.34 644.65" stroke="rgba(97, 82, 238, 1)" stroke-width="1.5"></path><path d="M943.36 527.42L1153.09 536.64" stroke="rgba(97, 82, 238, 1)" stroke-width="1.5"></path><path d="M986.59 666.42L986.59 666.42" stroke="rgba(97, 82, 238, 1)" stroke-width="1.5"></path><path d="M986.59 666.42L1115.34 644.65" stroke="rgba(97, 82, 238, 1)" stroke-width="1.5"></path><path d="M986.59 666.42L979.37 810.2" stroke="rgba(97, 82, 238, 1)" stroke-width="1.5"></path><path d="M986.59 666.42L1100.14 805.86" stroke="rgba(97, 82, 238, 1)" stroke-width="1.5"></path><path d="M979.37 810.2L979.37 810.2" stroke="rgba(97, 82, 238, 1)" stroke-width="1.5"></path><path d="M979.37 810.2L1100.14 805.86" stroke="rgba(97, 82, 238, 1)" stroke-width="1.5"></path><path d="M979.37 810.2L949.51 945.84" stroke="rgba(97, 82, 238, 1)" stroke-width="1.5"></path><path d="M949.51 945.84L949.51 945.84" stroke="rgba(97, 82, 238, 1)" stroke-width="1.5"></path><path d="M949.51 945.84L1114.61 953.58" stroke="rgba(97, 82, 238, 1)" stroke-width="1.5"></path><path d="M949.51 945.84L814.97 845.03" stroke="rgba(97, 82, 238, 1)" stroke-width="1.5"></path><path d="M1104.34 -90.71L1104.34 -90.71" stroke="rgba(97, 82, 238, 1)" stroke-width="1.5"></path><path d="M1104.34 -90.71L1282.12 -39.03" stroke="rgba(97, 82, 238, 1)" stroke-width="1.5"></path><path d="M1104.34 -90.71L1116.64 96.42" stroke="rgba(97, 82, 238, 1)" stroke-width="1.5"></path><path d="M1104.34 -90.71L1390.8 -49.9" stroke="rgba(97, 82, 238, 1)" stroke-width="1.5"></path><path d="M1116.64 96.42L1116.64 96.42" stroke="rgba(97, 82, 238, 1)" stroke-width="1.5"></path><path d="M1116.64 96.42L1149.33 204.43" stroke="rgba(97, 82, 238, 1)" stroke-width="1.5"></path><path d="M1116.64 96.42L1238.09 232.54" stroke="rgba(97, 82, 238, 1)" stroke-width="1.5"></path><path d="M1149.33 204.43L1149.33 204.43" stroke="rgba(97, 82, 238, 1)" stroke-width="1.5"></path><path d="M1149.33 204.43L1238.09 232.54" stroke="rgba(97, 82, 238, 1)" stroke-width="1.5"></path><path d="M1093.17 399.09L1093.17 399.09" stroke="rgba(97, 82, 238, 1)" stroke-width="1.5"></path><path d="M1093.17 399.09L1153.09 536.64" stroke="rgba(97, 82, 238, 1)" stroke-width="1.5"></path><path d="M1093.17 399.09L1284.38 371.94" stroke="rgba(97, 82, 238, 1)" stroke-width="1.5"></path><path d="M1153.09 536.64L1153.09 536.64" stroke="rgba(97, 82, 238, 1)" stroke-width="1.5"></path><path d="M1153.09 536.64L1261.02 535.3" stroke="rgba(97, 82, 238, 1)" stroke-width="1.5"></path><path d="M1153.09 536.64L1115.34 644.65" stroke="rgba(97, 82, 238, 1)" stroke-width="1.5"></path><path d="M1115.34 644.65L1115.34 644.65" stroke="rgba(97, 82, 238, 1)" stroke-width="1.5"></path><path d="M1115.34 644.65L1100.14 805.86" stroke="rgba(97, 82, 238, 1)" stroke-width="1.5"></path><path d="M1100.14 805.86L1100.14 805.86" stroke="rgba(97, 82, 238, 1)" stroke-width="1.5"></path><path d="M1100.14 805.86L1114.61 953.58" stroke="rgba(97, 82, 238, 1)" stroke-width="1.5"></path><path d="M1100.14 805.86L1287.04 822.76" stroke="rgba(97, 82, 238, 1)" stroke-width="1.5"></path><path d="M1114.61 953.58L1114.61 953.58" stroke="rgba(97, 82, 238, 1)" stroke-width="1.5"></path><path d="M1114.61 953.58L1300.3 944.59" stroke="rgba(97, 82, 238, 1)" stroke-width="1.5"></path><path d="M1114.61 953.58L979.37 810.2" stroke="rgba(97, 82, 238, 1)" stroke-width="1.5"></path><path d="M1114.61 953.58L1287.04 822.76" stroke="rgba(97, 82, 238, 1)" stroke-width="1.5"></path><path d="M1282.12 -39.03L1282.12 -39.03" stroke="rgba(97, 82, 238, 1)" stroke-width="1.5"></path><path d="M1282.12 -39.03L1390.8 -49.9" stroke="rgba(97, 82, 238, 1)" stroke-width="1.5"></path><path d="M1282.12 -39.03L1393.35 85.48" stroke="rgba(97, 82, 238, 1)" stroke-width="1.5"></path><path d="M1282.12 -39.03L1116.64 96.42" stroke="rgba(97, 82, 238, 1)" stroke-width="1.5"></path><path d="M1282.12 -39.03L1238.09 232.54" stroke="rgba(97, 82, 238, 1)" stroke-width="1.5"></path><path d="M1282.12 -39.03L1149.33 204.43" stroke="rgba(97, 82, 238, 1)" stroke-width="1.5"></path><path d="M1238.09 232.54L1238.09 232.54" stroke="rgba(97, 82, 238, 1)" stroke-width="1.5"></path><path d="M1238.09 232.54L1284.38 371.94" stroke="rgba(97, 82, 238, 1)" stroke-width="1.5"></path><path d="M1284.38 371.94L1284.38 371.94" stroke="rgba(97, 82, 238, 1)" stroke-width="1.5"></path><path d="M1284.38 371.94L1408.05 384.13" stroke="rgba(97, 82, 238, 1)" stroke-width="1.5"></path><path d="M1284.38 371.94L1261.02 535.3" stroke="rgba(97, 82, 238, 1)" stroke-width="1.5"></path><path d="M1261.02 535.3L1261.02 535.3" stroke="rgba(97, 82, 238, 1)" stroke-width="1.5"></path><path d="M1261.02 535.3L1402 535.91" stroke="rgba(97, 82, 238, 1)" stroke-width="1.5"></path><path d="M1261.02 535.3L1296.24 683.72" stroke="rgba(97, 82, 238, 1)" stroke-width="1.5"></path><path d="M1296.24 683.72L1296.24 683.72" stroke="rgba(97, 82, 238, 1)" stroke-width="1.5"></path><path d="M1296.24 683.72L1287.04 822.76" stroke="rgba(97, 82, 238, 1)" stroke-width="1.5"></path><path d="M1296.24 683.72L1442.68 667.66" stroke="rgba(97, 82, 238, 1)" stroke-width="1.5"></path><path d="M1296.24 683.72L1402 535.91" stroke="rgba(97, 82, 238, 1)" stroke-width="1.5"></path><path d="M1287.04 822.76L1287.04 822.76" stroke="rgba(97, 82, 238, 1)" stroke-width="1.5"></path><path d="M1287.04 822.76L1391.91 850.18" stroke="rgba(97, 82, 238, 1)" stroke-width="1.5"></path><path d="M1287.04 822.76L1300.3 944.59" stroke="rgba(97, 82, 238, 1)" stroke-width="1.5"></path><path d="M1300.3 944.59L1300.3 944.59" stroke="rgba(97, 82, 238, 1)" stroke-width="1.5"></path><path d="M1300.3 944.59L1391.91 850.18" stroke="rgba(97, 82, 238, 1)" stroke-width="1.5"></path><path d="M1300.3 944.59L1455.24 954.08" stroke="rgba(97, 82, 238, 1)" stroke-width="1.5"></path><path d="M1390.8 -49.9L1390.8 -49.9" stroke="rgba(97, 82, 238, 1)" stroke-width="1.5"></path><path d="M1390.8 -49.9L1393.35 85.48" stroke="rgba(97, 82, 238, 1)" stroke-width="1.5"></path><path d="M1390.8 -49.9L1593.72 -48.98" stroke="rgba(97, 82, 238, 1)" stroke-width="1.5"></path><path d="M1390.8 -49.9L1603.88 45.27" stroke="rgba(97, 82, 238, 1)" stroke-width="1.5"></path><path d="M1393.35 85.48L1393.35 85.48" stroke="rgba(97, 82, 238, 1)" stroke-width="1.5"></path><path d="M1393.35 85.48L1440.2 227.85" stroke="rgba(97, 82, 238, 1)" stroke-width="1.5"></path><path d="M1393.35 85.48L1238.09 232.54" stroke="rgba(97, 82, 238, 1)" stroke-width="1.5"></path><path d="M1393.35 85.48L1603.88 45.27" stroke="rgba(97, 82, 238, 1)" stroke-width="1.5"></path><path d="M1393.35 85.48L1590.93 189.39" stroke="rgba(97, 82, 238, 1)" stroke-width="1.5"></path><path d="M1440.2 227.85L1440.2 227.85" stroke="rgba(97, 82, 238, 1)" stroke-width="1.5"></path><path d="M1440.2 227.85L1590.93 189.39" stroke="rgba(97, 82, 238, 1)" stroke-width="1.5"></path><path d="M1440.2 227.85L1408.05 384.13" stroke="rgba(97, 82, 238, 1)" stroke-width="1.5"></path><path d="M1440.2 227.85L1546.01 382.7" stroke="rgba(97, 82, 238, 1)" stroke-width="1.5"></path><path d="M1408.05 384.13L1408.05 384.13" stroke="rgba(97, 82, 238, 1)" stroke-width="1.5"></path><path d="M1408.05 384.13L1546.01 382.7" stroke="rgba(97, 82, 238, 1)" stroke-width="1.5"></path><path d="M1408.05 384.13L1402 535.91" stroke="rgba(97, 82, 238, 1)" stroke-width="1.5"></path><path d="M1408.05 384.13L1261.02 535.3" stroke="rgba(97, 82, 238, 1)" stroke-width="1.5"></path><path d="M1408.05 384.13L1238.09 232.54" stroke="rgba(97, 82, 238, 1)" stroke-width="1.5"></path><path d="M1402 535.91L1402 535.91" stroke="rgba(97, 82, 238, 1)" stroke-width="1.5"></path><path d="M1402 535.91L1442.68 667.66" stroke="rgba(97, 82, 238, 1)" stroke-width="1.5"></path><path d="M1402 535.91L1595.17 514.37" stroke="rgba(97, 82, 238, 1)" stroke-width="1.5"></path><path d="M1442.68 667.66L1442.68 667.66" stroke="rgba(97, 82, 238, 1)" stroke-width="1.5"></path><path d="M1442.68 667.66L1612.07 711.66" stroke="rgba(97, 82, 238, 1)" stroke-width="1.5"></path><path d="M1442.68 667.66L1391.91 850.18" stroke="rgba(97, 82, 238, 1)" stroke-width="1.5"></path><path d="M1391.91 850.18L1391.91 850.18" stroke="rgba(97, 82, 238, 1)" stroke-width="1.5"></path><path d="M1391.91 850.18L1455.24 954.08" stroke="rgba(97, 82, 238, 1)" stroke-width="1.5"></path><path d="M1455.24 954.08L1455.24 954.08" stroke="rgba(97, 82, 238, 1)" stroke-width="1.5"></path><path d="M1455.24 954.08L1542.91 952.74" stroke="rgba(97, 82, 238, 1)" stroke-width="1.5"></path><path d="M1593.72 -48.98L1593.72 -48.98" stroke="rgba(97, 82, 238, 1)" stroke-width="1.5"></path><path d="M1593.72 -48.98L1603.88 45.27" stroke="rgba(97, 82, 238, 1)" stroke-width="1.5"></path><path d="M1593.72 -48.98L1590.93 189.39" stroke="rgba(97, 82, 238, 1)" stroke-width="1.5"></path><path d="M1593.72 -48.98L1393.35 85.48" stroke="rgba(97, 82, 238, 1)" stroke-width="1.5"></path><path d="M1603.88 45.27L1603.88 45.27" stroke="rgba(97, 82, 238, 1)" stroke-width="1.5"></path><path d="M1603.88 45.27L1590.93 189.39" stroke="rgba(97, 82, 238, 1)" stroke-width="1.5"></path><path d="M1603.88 45.27L1440.2 227.85" stroke="rgba(97, 82, 238, 1)" stroke-width="1.5"></path><path d="M1603.88 45.27L1282.12 -39.03" stroke="rgba(97, 82, 238, 1)" stroke-width="1.5"></path><path d="M1590.93 189.39L1590.93 189.39" stroke="rgba(97, 82, 238, 1)" stroke-width="1.5"></path><path d="M1590.93 189.39L1546.01 382.7" stroke="rgba(97, 82, 238, 1)" stroke-width="1.5"></path><path d="M1590.93 189.39L1408.05 384.13" stroke="rgba(97, 82, 238, 1)" stroke-width="1.5"></path><path d="M1546.01 382.7L1546.01 382.7" stroke="rgba(97, 82, 238, 1)" stroke-width="1.5"></path><path d="M1546.01 382.7L1595.17 514.37" stroke="rgba(97, 82, 238, 1)" stroke-width="1.5"></path><path d="M1595.17 514.37L1595.17 514.37" stroke="rgba(97, 82, 238, 1)" stroke-width="1.5"></path><path d="M1595.17 514.37L1612.07 711.66" stroke="rgba(97, 82, 238, 1)" stroke-width="1.5"></path><path d="M1595.17 514.37L1442.68 667.66" stroke="rgba(97, 82, 238, 1)" stroke-width="1.5"></path><path d="M1595.17 514.37L1408.05 384.13" stroke="rgba(97, 82, 238, 1)" stroke-width="1.5"></path><path d="M1595.17 514.37L1597.28 838.54" stroke="rgba(97, 82, 238, 1)" stroke-width="1.5"></path><path d="M1612.07 711.66L1612.07 711.66" stroke="rgba(97, 82, 238, 1)" stroke-width="1.5"></path><path d="M1612.07 711.66L1597.28 838.54" stroke="rgba(97, 82, 238, 1)" stroke-width="1.5"></path><path d="M1597.28 838.54L1597.28 838.54" stroke="rgba(97, 82, 238, 1)" stroke-width="1.5"></path><path d="M1597.28 838.54L1542.91 952.74" stroke="rgba(97, 82, 238, 1)" stroke-width="1.5"></path><path d="M1597.28 838.54L1455.24 954.08" stroke="rgba(97, 82, 238, 1)" stroke-width="1.5"></path><path d="M1597.28 838.54L1391.91 850.18" stroke="rgba(97, 82, 238, 1)" stroke-width="1.5"></path><path d="M1597.28 838.54L1442.68 667.66" stroke="rgba(97, 82, 238, 1)" stroke-width="1.5"></path><path d="M1542.91 952.74L1542.91 952.74" stroke="rgba(97, 82, 238, 1)" stroke-width="1.5"></path><path d="M1542.91 952.74L1391.91 850.18" stroke="rgba(97, 82, 238, 1)" stroke-width="1.5"></path><path d="M1542.91 952.74L1300.3 944.59" stroke="rgba(97, 82, 238, 1)" stroke-width="1.5"></path><path d="M1542.91 952.74L1612.07 711.66" stroke="rgba(97, 82, 238, 1)" stroke-width="1.5"></path><path d="M1542.91 952.74L1287.04 822.76" stroke="rgba(97, 82, 238, 1)" stroke-width="1.5"></path><circle r="5" cx="-97.42" cy="557.65" fill="rgba(97, 82, 238, 1)"></circle><circle r="5" cx="-111.57" cy="675.09" fill="rgba(97, 82, 238, 1)"></circle><circle r="5" cx="-108.92" cy="799.13" fill="rgba(97, 82, 238, 1)"></circle><circle r="5" cx="-65.08" cy="988.6" fill="rgba(97, 82, 238, 1)"></circle><circle r="5" cx="65.57" cy="645.21" fill="rgba(97, 82, 238, 1)"></circle><circle r="5" cx="90.65" cy="818.31" fill="rgba(97, 82, 238, 1)"></circle><circle r="5" cx="85.41" cy="937.67" fill="rgba(97, 82, 238, 1)"></circle><circle r="5" cx="261.06" cy="706.73" fill="rgba(97, 82, 238, 1)"></circle><circle r="5" cx="213.97" cy="823.73" fill="rgba(97, 82, 238, 1)"></circle><circle r="5" cx="230.38" cy="952.9" fill="rgba(97, 82, 238, 1)"></circle><circle r="5" cx="365.31" cy="558.24" fill="rgba(97, 82, 238, 1)"></circle><circle r="5" cx="349.23" cy="677.28" fill="rgba(97, 82, 238, 1)"></circle><circle r="5" cx="369.94" cy="813.35" fill="rgba(97, 82, 238, 1)"></circle><circle r="5" cx="374.67" cy="1003.08" fill="rgba(97, 82, 238, 1)"></circle><circle r="5" cx="490.4" cy="543.77" fill="rgba(97, 82, 238, 1)"></circle><circle r="5" cx="488.21" cy="670.81" fill="rgba(97, 82, 238, 1)"></circle><circle r="5" cx="536.6" cy="800.57" fill="rgba(97, 82, 238, 1)"></circle><circle r="5" cx="689.16" cy="353.38" fill="rgba(97, 82, 238, 1)"></circle><circle r="5" cx="659.99" cy="516.43" fill="rgba(97, 82, 238, 1)"></circle><circle r="5" cx="698.45" cy="665.7" fill="rgba(97, 82, 238, 1)"></circle><circle r="5" cx="669.54" cy="796.18" fill="rgba(97, 82, 238, 1)"></circle><circle r="5" cx="817.68" cy="249.67" fill="rgba(97, 82, 238, 1)"></circle><circle r="5" cx="818.64" cy="358.14" fill="rgba(97, 82, 238, 1)"></circle><circle r="5" cx="818.61" cy="542.8" fill="rgba(97, 82, 238, 1)"></circle><circle r="5" cx="797.25" cy="698.84" fill="rgba(97, 82, 238, 1)"></circle><circle r="5" cx="814.97" cy="845.03" fill="rgba(97, 82, 238, 1)"></circle><circle r="5" cx="795.69" cy="944.79" fill="rgba(97, 82, 238, 1)"></circle><circle r="5" cx="938.78" cy="-75.64" fill="rgba(97, 82, 238, 1)"></circle><circle r="5" cx="979.05" cy="41.33" fill="rgba(97, 82, 238, 1)"></circle><circle r="5" cx="939.56" cy="211.05" fill="rgba(97, 82, 238, 1)"></circle><circle r="5" cx="970.65" cy="392.18" fill="rgba(97, 82, 238, 1)"></circle><circle r="5" cx="943.36" cy="527.42" fill="rgba(97, 82, 238, 1)"></circle><circle r="5" cx="986.59" cy="666.42" fill="rgba(97, 82, 238, 1)"></circle><circle r="5" cx="979.37" cy="810.2" fill="rgba(97, 82, 238, 1)"></circle><circle r="5" cx="949.51" cy="945.84" fill="rgba(97, 82, 238, 1)"></circle><circle r="5" cx="1104.34" cy="-90.71" fill="rgba(97, 82, 238, 1)"></circle><circle r="5" cx="1116.64" cy="96.42" fill="rgba(97, 82, 238, 1)"></circle><circle r="5" cx="1149.33" cy="204.43" fill="rgba(97, 82, 238, 1)"></circle><circle r="5" cx="1093.17" cy="399.09" fill="rgba(97, 82, 238, 1)"></circle><circle r="5" cx="1153.09" cy="536.64" fill="rgba(97, 82, 238, 1)"></circle><circle r="5" cx="1115.34" cy="644.65" fill="rgba(97, 82, 238, 1)"></circle><circle r="5" cx="1100.14" cy="805.86" fill="rgba(97, 82, 238, 1)"></circle><circle r="5" cx="1114.61" cy="953.58" fill="rgba(97, 82, 238, 1)"></circle><circle r="5" cx="1282.12" cy="-39.03" fill="rgba(97, 82, 238, 1)"></circle><circle r="5" cx="1238.09" cy="232.54" fill="rgba(97, 82, 238, 1)"></circle><circle r="5" cx="1284.38" cy="371.94" fill="rgba(97, 82, 238, 1)"></circle><circle r="5" cx="1261.02" cy="535.3" fill="rgba(97, 82, 238, 1)"></circle><circle r="5" cx="1296.24" cy="683.72" fill="rgba(97, 82, 238, 1)"></circle><circle r="5" cx="1287.04" cy="822.76" fill="rgba(97, 82, 238, 1)"></circle><circle r="5" cx="1300.3" cy="944.59" fill="rgba(97, 82, 238, 1)"></circle><circle r="5" cx="1390.8" cy="-49.9" fill="rgba(97, 82, 238, 1)"></circle><circle r="5" cx="1393.35" cy="85.48" fill="rgba(97, 82, 238, 1)"></circle><circle r="5" cx="1440.2" cy="227.85" fill="rgba(97, 82, 238, 1)"></circle><circle r="5" cx="1408.05" cy="384.13" fill="rgba(97, 82, 238, 1)"></circle><circle r="5" cx="1402" cy="535.91" fill="rgba(97, 82, 238, 1)"></circle><circle r="5" cx="1442.68" cy="667.66" fill="rgba(97, 82, 238, 1)"></circle><circle r="5" cx="1391.91" cy="850.18" fill="rgba(97, 82, 238, 1)"></circle><circle r="5" cx="1455.24" cy="954.08" fill="rgba(97, 82, 238, 1)"></circle><circle r="5" cx="1593.72" cy="-48.98" fill="rgba(97, 82, 238, 1)"></circle><circle r="5" cx="1603.88" cy="45.27" fill="rgba(97, 82, 238, 1)"></circle><circle r="5" cx="1590.93" cy="189.39" fill="rgba(97, 82, 238, 1)"></circle><circle r="5" cx="1546.01" cy="382.7" fill="rgba(97, 82, 238, 1)"></circle><circle r="5" cx="1595.17" cy="514.37" fill="rgba(97, 82, 238, 1)"></circle><circle r="5" cx="1612.07" cy="711.66" fill="rgba(97, 82, 238, 1)"></circle><circle r="5" cx="1597.28" cy="838.54" fill="rgba(97, 82, 238, 1)"></circle><circle r="5" cx="1542.91" cy="952.74" fill="rgba(97, 82, 238, 1)"></circle><path d="M489.76 955.89L489.76 955.89" stroke="hsl(120, 100%, 58.9%)" stroke-width="1.5"></path><path d="M489.76 955.89L503.07 816.52" stroke="hsl(120, 100%, 58.9%)" stroke-width="1.5"></path><path d="M489.76 955.89L340.58 1001.77" stroke="hsl(120, 100%, 58.9%)" stroke-width="1.5"></path><path d="M489.76 955.89L353.62 851.04" stroke="hsl(120, 100%, 58.9%)" stroke-width="1.5"></path><path d="M709.63 798.54L709.63 798.54" stroke="hsl(120, 100%, 58.9%)" stroke-width="1.5"></path><path d="M709.63 798.54L671.48 668.76" stroke="hsl(120, 100%, 58.9%)" stroke-width="1.5"></path><path d="M709.63 798.54L861.22 809.09" stroke="hsl(120, 100%, 58.9%)" stroke-width="1.5"></path><path d="M709.63 798.54L668.06 965.75" stroke="hsl(120, 100%, 58.9%)" stroke-width="1.5"></path><path d="M709.63 798.54L859.17 660.18" stroke="hsl(120, 100%, 58.9%)" stroke-width="1.5"></path><path d="M709.63 798.54L503.07 816.52" stroke="hsl(120, 100%, 58.9%)" stroke-width="1.5"></path><path d="M668.06 965.75L668.06 965.75" stroke="hsl(120, 100%, 58.9%)" stroke-width="1.5"></path><path d="M668.06 965.75L489.76 955.89" stroke="hsl(120, 100%, 58.9%)" stroke-width="1.5"></path><path d="M668.06 965.75L857.63 966.05" stroke="hsl(120, 100%, 58.9%)" stroke-width="1.5"></path><path d="M859.17 660.18L859.17 660.18" stroke="hsl(120, 100%, 58.9%)" stroke-width="1.5"></path><path d="M859.17 660.18L839.27 559.03" stroke="hsl(120, 100%, 58.9%)" stroke-width="1.5"></path><path d="M859.17 660.18L979.53 668.69" stroke="hsl(120, 100%, 58.9%)" stroke-width="1.5"></path><path d="M859.17 660.18L861.22 809.09" stroke="hsl(120, 100%, 58.9%)" stroke-width="1.5"></path><path d="M859.17 660.18L937.99 813.16" stroke="hsl(120, 100%, 58.9%)" stroke-width="1.5"></path><path d="M859.17 660.18L950.7 502.65" stroke="hsl(120, 100%, 58.9%)" stroke-width="1.5"></path><path d="M937.99 813.16L937.99 813.16" stroke="hsl(120, 100%, 58.9%)" stroke-width="1.5"></path><path d="M937.99 813.16L861.22 809.09" stroke="hsl(120, 100%, 58.9%)" stroke-width="1.5"></path><path d="M937.99 813.16L946.89 949.14" stroke="hsl(120, 100%, 58.9%)" stroke-width="1.5"></path><path d="M937.99 813.16L979.53 668.69" stroke="hsl(120, 100%, 58.9%)" stroke-width="1.5"></path><path d="M937.99 813.16L1100.28 839.37" stroke="hsl(120, 100%, 58.9%)" stroke-width="1.5"></path><path d="M937.99 813.16L857.63 966.05" stroke="hsl(120, 100%, 58.9%)" stroke-width="1.5"></path><path d="M1114.43 712.08L1114.43 712.08" stroke="hsl(120, 100%, 58.9%)" stroke-width="1.5"></path><path d="M1114.43 712.08L1100.28 839.37" stroke="hsl(120, 100%, 58.9%)" stroke-width="1.5"></path><path d="M1114.43 712.08L979.53 668.69" stroke="hsl(120, 100%, 58.9%)" stroke-width="1.5"></path><path d="M1114.43 712.08L1133.17 551.11" stroke="hsl(120, 100%, 58.9%)" stroke-width="1.5"></path><path d="M1114.43 712.08L1289.29 705.29" stroke="hsl(120, 100%, 58.9%)" stroke-width="1.5"></path><path d="M1114.43 712.08L1277.19 814.11" stroke="hsl(120, 100%, 58.9%)" stroke-width="1.5"></path><path d="M1114.43 712.08L937.99 813.16" stroke="hsl(120, 100%, 58.9%)" stroke-width="1.5"></path><path d="M1305.9 376.79L1305.9 376.79" stroke="hsl(120, 100%, 58.9%)" stroke-width="1.5"></path><path d="M1305.9 376.79L1417.45 396.41" stroke="hsl(120, 100%, 58.9%)" stroke-width="1.5"></path><path d="M1305.9 376.79L1309.49 222.87" stroke="hsl(120, 100%, 58.9%)" stroke-width="1.5"></path><path d="M1305.9 376.79L1389.94 529.02" stroke="hsl(120, 100%, 58.9%)" stroke-width="1.5"></path><path d="M1305.9 376.79L1248.71 544.78" stroke="hsl(120, 100%, 58.9%)" stroke-width="1.5"></path><path d="M1248.71 544.78L1248.71 544.78" stroke="hsl(120, 100%, 58.9%)" stroke-width="1.5"></path><path d="M1248.71 544.78L1133.17 551.11" stroke="hsl(120, 100%, 58.9%)" stroke-width="1.5"></path><path d="M1248.71 544.78L1389.94 529.02" stroke="hsl(120, 100%, 58.9%)" stroke-width="1.5"></path><path d="M1248.71 544.78L1289.29 705.29" stroke="hsl(120, 100%, 58.9%)" stroke-width="1.5"></path><path d="M1289.29 705.29L1289.29 705.29" stroke="hsl(120, 100%, 58.9%)" stroke-width="1.5"></path><path d="M1289.29 705.29L1277.19 814.11" stroke="hsl(120, 100%, 58.9%)" stroke-width="1.5"></path><path d="M1289.29 705.29L1392.73 657.04" stroke="hsl(120, 100%, 58.9%)" stroke-width="1.5"></path><path d="M1277.19 814.11L1277.19 814.11" stroke="hsl(120, 100%, 58.9%)" stroke-width="1.5"></path><path d="M1277.19 814.11L1305.26 965.18" stroke="hsl(120, 100%, 58.9%)" stroke-width="1.5"></path><path d="M1277.19 814.11L1448.57 829.52" stroke="hsl(120, 100%, 58.9%)" stroke-width="1.5"></path><path d="M1277.19 814.11L1100.28 839.37" stroke="hsl(120, 100%, 58.9%)" stroke-width="1.5"></path><path d="M1305.26 965.18L1305.26 965.18" stroke="hsl(120, 100%, 58.9%)" stroke-width="1.5"></path><path d="M1305.26 965.18L1402.12 964.22" stroke="hsl(120, 100%, 58.9%)" stroke-width="1.5"></path><path d="M1305.26 965.18L1448.57 829.52" stroke="hsl(120, 100%, 58.9%)" stroke-width="1.5"></path><path d="M1305.26 965.18L1105.97 951.53" stroke="hsl(120, 100%, 58.9%)" stroke-width="1.5"></path><path d="M1305.26 965.18L1543.96 976.81" stroke="hsl(120, 100%, 58.9%)" stroke-width="1.5"></path><path d="M1305.26 965.18L1100.28 839.37" stroke="hsl(120, 100%, 58.9%)" stroke-width="1.5"></path><path d="M1426.96 75.69L1426.96 75.69" stroke="hsl(120, 100%, 58.9%)" stroke-width="1.5"></path><path d="M1426.96 75.69L1561.6 66.42" stroke="hsl(120, 100%, 58.9%)" stroke-width="1.5"></path><path d="M1426.96 75.69L1290.08 72.3" stroke="hsl(120, 100%, 58.9%)" stroke-width="1.5"></path><path d="M1426.96 75.69L1418.93 212.53" stroke="hsl(120, 100%, 58.9%)" stroke-width="1.5"></path><path d="M1426.96 75.69L1397.42 -102.16" stroke="hsl(120, 100%, 58.9%)" stroke-width="1.5"></path><path d="M1426.96 75.69L1309.49 222.87" stroke="hsl(120, 100%, 58.9%)" stroke-width="1.5"></path><path d="M1402.12 964.22L1402.12 964.22" stroke="hsl(120, 100%, 58.9%)" stroke-width="1.5"></path><path d="M1402.12 964.22L1543.96 976.81" stroke="hsl(120, 100%, 58.9%)" stroke-width="1.5"></path><path d="M-52.53 804.84L-52.53 804.84" stroke="hsl(120, 100%, 58.9%)" stroke-width="1.5"></path><path d="M-52.53 804.84L56.83 829.15" stroke="hsl(120, 100%, 58.9%)" stroke-width="1.5"></path><path d="M-52.53 804.84L-74.58 980.28" stroke="hsl(120, 100%, 58.9%)" stroke-width="1.5"></path><path d="M-52.53 804.84L46.68 1000.21" stroke="hsl(120, 100%, 58.9%)" stroke-width="1.5"></path><path d="M-52.53 804.84L241.77 800.7" stroke="hsl(120, 100%, 58.9%)" stroke-width="1.5"></path><path d="M-52.53 804.84L198.65 999.54" stroke="hsl(120, 100%, 58.9%)" stroke-width="1.5"></path><path d="M-74.58 980.28L-74.58 980.28" stroke="hsl(120, 100%, 58.9%)" stroke-width="1.5"></path><path d="M-74.58 980.28L46.68 1000.21" stroke="hsl(120, 100%, 58.9%)" stroke-width="1.5"></path><path d="M-74.58 980.28L56.83 829.15" stroke="hsl(120, 100%, 58.9%)" stroke-width="1.5"></path><path d="M-74.58 980.28L198.65 999.54" stroke="hsl(120, 100%, 58.9%)" stroke-width="1.5"></path><path d="M56.83 829.15L56.83 829.15" stroke="hsl(120, 100%, 58.9%)" stroke-width="1.5"></path><path d="M56.83 829.15L46.68 1000.21" stroke="hsl(120, 100%, 58.9%)" stroke-width="1.5"></path><path d="M46.68 1000.21L46.68 1000.21" stroke="hsl(120, 100%, 58.9%)" stroke-width="1.5"></path><path d="M46.68 1000.21L198.65 999.54" stroke="hsl(120, 100%, 58.9%)" stroke-width="1.5"></path><path d="M241.77 800.7L241.77 800.7" stroke="hsl(120, 100%, 58.9%)" stroke-width="1.5"></path><path d="M241.77 800.7L353.62 851.04" stroke="hsl(120, 100%, 58.9%)" stroke-width="1.5"></path><path d="M241.77 800.7L360.13 708.54" stroke="hsl(120, 100%, 58.9%)" stroke-width="1.5"></path><path d="M241.77 800.7L56.83 829.15" stroke="hsl(120, 100%, 58.9%)" stroke-width="1.5"></path><path d="M241.77 800.7L198.65 999.54" stroke="hsl(120, 100%, 58.9%)" stroke-width="1.5"></path><path d="M198.65 999.54L198.65 999.54" stroke="hsl(120, 100%, 58.9%)" stroke-width="1.5"></path><path d="M198.65 999.54L340.58 1001.77" stroke="hsl(120, 100%, 58.9%)" stroke-width="1.5"></path><path d="M360.13 708.54L360.13 708.54" stroke="hsl(120, 100%, 58.9%)" stroke-width="1.5"></path><path d="M360.13 708.54L353.62 851.04" stroke="hsl(120, 100%, 58.9%)" stroke-width="1.5"></path><path d="M360.13 708.54L503.07 816.52" stroke="hsl(120, 100%, 58.9%)" stroke-width="1.5"></path><path d="M360.13 708.54L553.34 646.54" stroke="hsl(120, 100%, 58.9%)" stroke-width="1.5"></path><path d="M360.13 708.54L489.76 955.89" stroke="hsl(120, 100%, 58.9%)" stroke-width="1.5"></path><path d="M353.62 851.04L353.62 851.04" stroke="hsl(120, 100%, 58.9%)" stroke-width="1.5"></path><path d="M353.62 851.04L340.58 1001.77" stroke="hsl(120, 100%, 58.9%)" stroke-width="1.5"></path><path d="M340.58 1001.77L340.58 1001.77" stroke="hsl(120, 100%, 58.9%)" stroke-width="1.5"></path><path d="M553.34 646.54L553.34 646.54" stroke="hsl(120, 100%, 58.9%)" stroke-width="1.5"></path><path d="M553.34 646.54L671.48 668.76" stroke="hsl(120, 100%, 58.9%)" stroke-width="1.5"></path><path d="M553.34 646.54L503.07 816.52" stroke="hsl(120, 100%, 58.9%)" stroke-width="1.5"></path><path d="M503.07 816.52L503.07 816.52" stroke="hsl(120, 100%, 58.9%)" stroke-width="1.5"></path><path d="M503.07 816.52L353.62 851.04" stroke="hsl(120, 100%, 58.9%)" stroke-width="1.5"></path><path d="M671.48 668.76L671.48 668.76" stroke="hsl(120, 100%, 58.9%)" stroke-width="1.5"></path><path d="M671.48 668.76L859.17 660.18" stroke="hsl(120, 100%, 58.9%)" stroke-width="1.5"></path><path d="M839.27 559.03L839.27 559.03" stroke="hsl(120, 100%, 58.9%)" stroke-width="1.5"></path><path d="M839.27 559.03L950.7 502.65" stroke="hsl(120, 100%, 58.9%)" stroke-width="1.5"></path><path d="M839.27 559.03L979.53 668.69" stroke="hsl(120, 100%, 58.9%)" stroke-width="1.5"></path><path d="M861.22 809.09L861.22 809.09" stroke="hsl(120, 100%, 58.9%)" stroke-width="1.5"></path><path d="M861.22 809.09L857.63 966.05" stroke="hsl(120, 100%, 58.9%)" stroke-width="1.5"></path><path d="M861.22 809.09L946.89 949.14" stroke="hsl(120, 100%, 58.9%)" stroke-width="1.5"></path><path d="M857.63 966.05L857.63 966.05" stroke="hsl(120, 100%, 58.9%)" stroke-width="1.5"></path><path d="M857.63 966.05L946.89 949.14" stroke="hsl(120, 100%, 58.9%)" stroke-width="1.5"></path><path d="M857.63 966.05L709.63 798.54" stroke="hsl(120, 100%, 58.9%)" stroke-width="1.5"></path><path d="M857.63 966.05L1105.97 951.53" stroke="hsl(120, 100%, 58.9%)" stroke-width="1.5"></path><path d="M994.85 403.34L994.85 403.34" stroke="hsl(120, 100%, 58.9%)" stroke-width="1.5"></path><path d="M994.85 403.34L950.7 502.65" stroke="hsl(120, 100%, 58.9%)" stroke-width="1.5"></path><path d="M994.85 403.34L1123.96 364.97" stroke="hsl(120, 100%, 58.9%)" stroke-width="1.5"></path><path d="M994.85 403.34L1133.17 551.11" stroke="hsl(120, 100%, 58.9%)" stroke-width="1.5"></path><path d="M994.85 403.34L839.27 559.03" stroke="hsl(120, 100%, 58.9%)" stroke-width="1.5"></path><path d="M950.7 502.65L950.7 502.65" stroke="hsl(120, 100%, 58.9%)" stroke-width="1.5"></path><path d="M979.53 668.69L979.53 668.69" stroke="hsl(120, 100%, 58.9%)" stroke-width="1.5"></path><path d="M979.53 668.69L950.7 502.65" stroke="hsl(120, 100%, 58.9%)" stroke-width="1.5"></path><path d="M946.89 949.14L946.89 949.14" stroke="hsl(120, 100%, 58.9%)" stroke-width="1.5"></path><path d="M946.89 949.14L1105.97 951.53" stroke="hsl(120, 100%, 58.9%)" stroke-width="1.5"></path><path d="M946.89 949.14L1100.28 839.37" stroke="hsl(120, 100%, 58.9%)" stroke-width="1.5"></path><path d="M1160.56 204.39L1160.56 204.39" stroke="hsl(120, 100%, 58.9%)" stroke-width="1.5"></path><path d="M1160.56 204.39L1309.49 222.87" stroke="hsl(120, 100%, 58.9%)" stroke-width="1.5"></path><path d="M1160.56 204.39L1123.96 364.97" stroke="hsl(120, 100%, 58.9%)" stroke-width="1.5"></path><path d="M1160.56 204.39L1290.08 72.3" stroke="hsl(120, 100%, 58.9%)" stroke-width="1.5"></path><path d="M1160.56 204.39L1305.9 376.79" stroke="hsl(120, 100%, 58.9%)" stroke-width="1.5"></path><path d="M1160.56 204.39L1418.93 212.53" stroke="hsl(120, 100%, 58.9%)" stroke-width="1.5"></path><path d="M1160.56 204.39L994.85 403.34" stroke="hsl(120, 100%, 58.9%)" stroke-width="1.5"></path><path d="M1123.96 364.97L1123.96 364.97" stroke="hsl(120, 100%, 58.9%)" stroke-width="1.5"></path><path d="M1133.17 551.11L1133.17 551.11" stroke="hsl(120, 100%, 58.9%)" stroke-width="1.5"></path><path d="M1100.28 839.37L1100.28 839.37" stroke="hsl(120, 100%, 58.9%)" stroke-width="1.5"></path><path d="M1100.28 839.37L1105.97 951.53" stroke="hsl(120, 100%, 58.9%)" stroke-width="1.5"></path><path d="M1105.97 951.53L1105.97 951.53" stroke="hsl(120, 100%, 58.9%)" stroke-width="1.5"></path><path d="M1272.74 -83.91L1272.74 -83.91" stroke="hsl(120, 100%, 58.9%)" stroke-width="1.5"></path><path d="M1272.74 -83.91L1397.42 -102.16" stroke="hsl(120, 100%, 58.9%)" stroke-width="1.5"></path><path d="M1272.74 -83.91L1290.08 72.3" stroke="hsl(120, 100%, 58.9%)" stroke-width="1.5"></path><path d="M1272.74 -83.91L1426.96 75.69" stroke="hsl(120, 100%, 58.9%)" stroke-width="1.5"></path><path d="M1272.74 -83.91L1562.95 -106.24" stroke="hsl(120, 100%, 58.9%)" stroke-width="1.5"></path><path d="M1272.74 -83.91L1309.49 222.87" stroke="hsl(120, 100%, 58.9%)" stroke-width="1.5"></path><path d="M1290.08 72.3L1290.08 72.3" stroke="hsl(120, 100%, 58.9%)" stroke-width="1.5"></path><path d="M1290.08 72.3L1309.49 222.87" stroke="hsl(120, 100%, 58.9%)" stroke-width="1.5"></path><path d="M1290.08 72.3L1418.93 212.53" stroke="hsl(120, 100%, 58.9%)" stroke-width="1.5"></path><path d="M1290.08 72.3L1397.42 -102.16" stroke="hsl(120, 100%, 58.9%)" stroke-width="1.5"></path><path d="M1309.49 222.87L1309.49 222.87" stroke="hsl(120, 100%, 58.9%)" stroke-width="1.5"></path><path d="M1309.49 222.87L1418.93 212.53" stroke="hsl(120, 100%, 58.9%)" stroke-width="1.5"></path><path d="M1397.42 -102.16L1397.42 -102.16" stroke="hsl(120, 100%, 58.9%)" stroke-width="1.5"></path><path d="M1397.42 -102.16L1562.95 -106.24" stroke="hsl(120, 100%, 58.9%)" stroke-width="1.5"></path><path d="M1418.93 212.53L1418.93 212.53" stroke="hsl(120, 100%, 58.9%)" stroke-width="1.5"></path><path d="M1418.93 212.53L1544.34 240.2" stroke="hsl(120, 100%, 58.9%)" stroke-width="1.5"></path><path d="M1417.45 396.41L1417.45 396.41" stroke="hsl(120, 100%, 58.9%)" stroke-width="1.5"></path><path d="M1417.45 396.41L1389.94 529.02" stroke="hsl(120, 100%, 58.9%)" stroke-width="1.5"></path><path d="M1417.45 396.41L1585 371.17" stroke="hsl(120, 100%, 58.9%)" stroke-width="1.5"></path><path d="M1417.45 396.41L1552.42 499.57" stroke="hsl(120, 100%, 58.9%)" stroke-width="1.5"></path><path d="M1417.45 396.41L1418.93 212.53" stroke="hsl(120, 100%, 58.9%)" stroke-width="1.5"></path><path d="M1389.94 529.02L1389.94 529.02" stroke="hsl(120, 100%, 58.9%)" stroke-width="1.5"></path><path d="M1389.94 529.02L1392.73 657.04" stroke="hsl(120, 100%, 58.9%)" stroke-width="1.5"></path><path d="M1392.73 657.04L1392.73 657.04" stroke="hsl(120, 100%, 58.9%)" stroke-width="1.5"></path><path d="M1392.73 657.04L1448.57 829.52" stroke="hsl(120, 100%, 58.9%)" stroke-width="1.5"></path><path d="M1448.57 829.52L1448.57 829.52" stroke="hsl(120, 100%, 58.9%)" stroke-width="1.5"></path><path d="M1448.57 829.52L1548.07 830.53" stroke="hsl(120, 100%, 58.9%)" stroke-width="1.5"></path><path d="M1448.57 829.52L1402.12 964.22" stroke="hsl(120, 100%, 58.9%)" stroke-width="1.5"></path><path d="M1562.95 -106.24L1562.95 -106.24" stroke="hsl(120, 100%, 58.9%)" stroke-width="1.5"></path><path d="M1562.95 -106.24L1561.6 66.42" stroke="hsl(120, 100%, 58.9%)" stroke-width="1.5"></path><path d="M1562.95 -106.24L1426.96 75.69" stroke="hsl(120, 100%, 58.9%)" stroke-width="1.5"></path><path d="M1561.6 66.42L1561.6 66.42" stroke="hsl(120, 100%, 58.9%)" stroke-width="1.5"></path><path d="M1561.6 66.42L1544.34 240.2" stroke="hsl(120, 100%, 58.9%)" stroke-width="1.5"></path><path d="M1544.34 240.2L1544.34 240.2" stroke="hsl(120, 100%, 58.9%)" stroke-width="1.5"></path><path d="M1544.34 240.2L1585 371.17" stroke="hsl(120, 100%, 58.9%)" stroke-width="1.5"></path><path d="M1585 371.17L1585 371.17" stroke="hsl(120, 100%, 58.9%)" stroke-width="1.5"></path><path d="M1585 371.17L1552.42 499.57" stroke="hsl(120, 100%, 58.9%)" stroke-width="1.5"></path><path d="M1552.42 499.57L1552.42 499.57" stroke="hsl(120, 100%, 58.9%)" stroke-width="1.5"></path><path d="M1552.42 499.57L1597.12 644.42" stroke="hsl(120, 100%, 58.9%)" stroke-width="1.5"></path><path d="M1552.42 499.57L1389.94 529.02" stroke="hsl(120, 100%, 58.9%)" stroke-width="1.5"></path><path d="M1597.12 644.42L1597.12 644.42" stroke="hsl(120, 100%, 58.9%)" stroke-width="1.5"></path><path d="M1597.12 644.42L1548.07 830.53" stroke="hsl(120, 100%, 58.9%)" stroke-width="1.5"></path><path d="M1548.07 830.53L1548.07 830.53" stroke="hsl(120, 100%, 58.9%)" stroke-width="1.5"></path><path d="M1548.07 830.53L1543.96 976.81" stroke="hsl(120, 100%, 58.9%)" stroke-width="1.5"></path><path d="M1548.07 830.53L1402.12 964.22" stroke="hsl(120, 100%, 58.9%)" stroke-width="1.5"></path><path d="M1548.07 830.53L1392.73 657.04" stroke="hsl(120, 100%, 58.9%)" stroke-width="1.5"></path><path d="M1548.07 830.53L1277.19 814.11" stroke="hsl(120, 100%, 58.9%)" stroke-width="1.5"></path><path d="M1543.96 976.81L1543.96 976.81" stroke="hsl(120, 100%, 58.9%)" stroke-width="1.5"></path><path d="M1543.96 976.81L1448.57 829.52" stroke="hsl(120, 100%, 58.9%)" stroke-width="1.5"></path><circle r="25" cx="489.76" cy="955.89" fill="url(#SvgjsRadialGradient1753)"></circle><circle r="25" cx="709.63" cy="798.54" fill="url(#SvgjsRadialGradient1753)"></circle><circle r="25" cx="668.06" cy="965.75" fill="url(#SvgjsRadialGradient1753)"></circle><circle r="25" cx="859.17" cy="660.18" fill="url(#SvgjsRadialGradient1753)"></circle><circle r="25" cx="937.99" cy="813.16" fill="url(#SvgjsRadialGradient1753)"></circle><circle r="25" cx="1114.43" cy="712.08" fill="url(#SvgjsRadialGradient1753)"></circle><circle r="25" cx="1305.9" cy="376.79" fill="url(#SvgjsRadialGradient1753)"></circle><circle r="25" cx="1248.71" cy="544.78" fill="url(#SvgjsRadialGradient1753)"></circle><circle r="25" cx="1289.29" cy="705.29" fill="url(#SvgjsRadialGradient1753)"></circle><circle r="25" cx="1277.19" cy="814.11" fill="url(#SvgjsRadialGradient1753)"></circle><circle r="25" cx="1305.26" cy="965.18" fill="url(#SvgjsRadialGradient1753)"></circle><circle r="25" cx="1426.96" cy="75.69" fill="url(#SvgjsRadialGradient1753)"></circle><circle r="25" cx="1402.12" cy="964.22" fill="url(#SvgjsRadialGradient1753)"></circle><circle r="5" cx="-52.53" cy="804.84" fill="#80f380"></circle><circle r="5" cx="-74.58" cy="980.28" fill="#80f380"></circle><circle r="5" cx="56.83" cy="829.15" fill="#80f380"></circle><circle r="5" cx="46.68" cy="1000.21" fill="#80f380"></circle><circle r="5" cx="241.77" cy="800.7" fill="#80f380"></circle><circle r="5" cx="198.65" cy="999.54" fill="#80f380"></circle><circle r="5" cx="360.13" cy="708.54" fill="#80f380"></circle><circle r="5" cx="353.62" cy="851.04" fill="#80f380"></circle><circle r="5" cx="340.58" cy="1001.77" fill="#80f380"></circle><circle r="5" cx="553.34" cy="646.54" fill="#80f380"></circle><circle r="5" cx="503.07" cy="816.52" fill="#80f380"></circle><circle r="5" cx="671.48" cy="668.76" fill="#80f380"></circle><circle r="5" cx="839.27" cy="559.03" fill="#80f380"></circle><circle r="5" cx="861.22" cy="809.09" fill="#80f380"></circle><circle r="5" cx="857.63" cy="966.05" fill="#80f380"></circle><circle r="5" cx="994.85" cy="403.34" fill="#80f380"></circle><circle r="5" cx="950.7" cy="502.65" fill="#80f380"></circle><circle r="5" cx="979.53" cy="668.69" fill="#80f380"></circle><circle r="5" cx="946.89" cy="949.14" fill="#80f380"></circle><circle r="5" cx="1160.56" cy="204.39" fill="#80f380"></circle><circle r="5" cx="1123.96" cy="364.97" fill="#80f380"></circle><circle r="5" cx="1133.17" cy="551.11" fill="#80f380"></circle><circle r="5" cx="1100.28" cy="839.37" fill="#80f380"></circle><circle r="5" cx="1105.97" cy="951.53" fill="#80f380"></circle><circle r="5" cx="1272.74" cy="-83.91" fill="#80f380"></circle><circle r="5" cx="1290.08" cy="72.3" fill="#80f380"></circle><circle r="5" cx="1309.49" cy="222.87" fill="#80f380"></circle><circle r="5" cx="1397.42" cy="-102.16" fill="#80f380"></circle><circle r="5" cx="1418.93" cy="212.53" fill="#80f380"></circle><circle r="5" cx="1417.45" cy="396.41" fill="#80f380"></circle><circle r="5" cx="1389.94" cy="529.02" fill="#80f380"></circle><circle r="5" cx="1392.73" cy="657.04" fill="#80f380"></circle><circle r="5" cx="1448.57" cy="829.52" fill="#80f380"></circle><circle r="5" cx="1562.95" cy="-106.24" fill="#80f380"></circle><circle r="5" cx="1561.6" cy="66.42" fill="#80f380"></circle><circle r="5" cx="1544.34" cy="240.2" fill="#80f380"></circle><circle r="5" cx="1585" cy="371.17" fill="#80f380"></circle><circle r="5" cx="1552.42" cy="499.57" fill="#80f380"></circle><circle r="5" cx="1597.12" cy="644.42" fill="#80f380"></circle><circle r="5" cx="1548.07" cy="830.53" fill="#80f380"></circle><circle r="5" cx="1543.96" cy="976.81" fill="#80f380"></circle></g><defs><mask id="SvgjsMask1752"><rect width="1440" height="900" fill="#ffffff"></rect></mask><radialGradient id="SvgjsRadialGradient1753"><stop stop-color="#ffffff" offset="0.1"></stop><stop stop-color="rgba(0, 231, 0, 1)" offset="0.2"></stop><stop stop-color="rgba(0, 231, 0, 0)" offset="1"></stop></radialGradient></defs></svg>