<svg id="visual" viewBox="0 0 675 900" width="675" height="900" xmlns="http://www.w3.org/2000/svg" xmlns:xlink="http://www.w3.org/1999/xlink" version="1.1"><rect x="0" y="0" width="675" height="900" fill="#001122"></rect><path d="M133 0L121 47L206 95L161 142L197 189L219 237L187 284L150 332L172 379L204 426L194 474L122 521L161 568L216 616L148 663L131 711L133 758L202 805L192 853L166 900L0 900L0 853L0 805L0 758L0 711L0 663L0 616L0 568L0 521L0 474L0 426L0 379L0 332L0 284L0 237L0 189L0 142L0 95L0 47L0 0Z" fill="#FFFFFF" stroke-linecap="square" stroke-linejoin="bevel"></path></svg>