<svg id="visual" viewBox="0 0 900 1400" width="900" height="1400" xmlns="http://www.w3.org/2000/svg" xmlns:xlink="http://www.w3.org/1999/xlink" version="1.1"><rect x="0" y="0" width="900" height="1400" fill="#6152ee"></rect><path d="M713 1400L717 1366.7C721 1333.3 729 1266.7 667.5 1200C606 1133.3 475 1066.7 431.2 1000C387.3 933.3 430.7 866.7 487.7 800C544.7 733.3 615.3 666.7 594.2 600C573 533.3 460 466.7 408 400C356 333.3 365 266.7 403.8 200C442.7 133.3 511.3 66.7 545.7 33.3L580 0L900 0L900 33.3C900 66.7 900 133.3 900 200C900 266.7 900 333.3 900 400C900 466.7 900 533.3 900 600C900 666.7 900 733.3 900 800C900 866.7 900 933.3 900 1000C900 1066.7 900 1133.3 900 1200C900 1266.7 900 1333.3 900 1366.7L900 1400Z" fill="#FFFFFF" stroke-linecap="round" stroke-linejoin="miter"></path></svg>