<svg id="visual" viewBox="0 0 900 1400" width="900" height="1400" xmlns="http://www.w3.org/2000/svg" xmlns:xlink="http://www.w3.org/1999/xlink" version="1.1"><rect x="0" y="0" width="900" height="1400" fill="#001122"></rect><path d="M545 1400L526 1389.3C507 1378.7 469 1357.3 483.3 1336.2C497.7 1315 564.3 1294 593.3 1272.8C622.3 1251.7 613.7 1230.3 576.2 1209C538.7 1187.7 472.3 1166.3 457.5 1145.2C442.7 1124 479.3 1103 530.2 1081.8C581 1060.7 646 1039.3 688.8 1018.2C731.7 997 752.3 976 747.7 954.8C743 933.7 713 912.3 711.2 891C709.3 869.7 735.7 848.3 691.8 827.2C648 806 534 785 476.8 763.8C419.7 742.7 419.3 721.3 432.3 700C445.3 678.7 471.7 657.3 501 636.2C530.3 615 562.7 594 566.5 572.8C570.3 551.7 545.7 530.3 561.2 509C576.7 487.7 632.3 466.3 657.5 445.2C682.7 424 677.3 403 654.3 381.8C631.3 360.7 590.7 339.3 563 318.2C535.3 297 520.7 276 547.7 254.8C574.7 233.7 643.3 212.3 688 191C732.7 169.7 753.3 148.3 740.8 127.2C728.3 106 682.7 85 677.7 63.8C672.7 42.7 708.3 21.3 726.2 10.7L744 0L900 0L900 10.7C900 21.3 900 42.7 900 63.8C900 85 900 106 900 127.2C900 148.3 900 169.7 900 191C900 212.3 900 233.7 900 254.8C900 276 900 297 900 318.2C900 339.3 900 360.7 900 381.8C900 403 900 424 900 445.2C900 466.3 900 487.7 900 509C900 530.3 900 551.7 900 572.8C900 594 900 615 900 636.2C900 657.3 900 678.7 900 700C900 721.3 900 742.7 900 763.8C900 785 900 806 900 827.2C900 848.3 900 869.7 900 891C900 912.3 900 933.7 900 954.8C900 976 900 997 900 1018.2C900 1039.3 900 1060.7 900 1081.8C900 1103 900 1124 900 1145.2C900 1166.3 900 1187.7 900 1209C900 1230.3 900 1251.7 900 1272.8C900 1294 900 1315 900 1336.2C900 1357.3 900 1378.7 900 1389.3L900 1400Z" fill="#FFFFFF" stroke-linecap="round" stroke-linejoin="miter"></path></svg>