<svg id="visual" viewBox="0 0 675 900" width="675" height="900" xmlns="http://www.w3.org/2000/svg" xmlns:xlink="http://www.w3.org/1999/xlink" version="1.1"><rect x="0" y="0" width="675" height="900" fill="#001122"></rect><path d="M207 0L202.7 7.8C198.3 15.7 189.7 31.3 180.5 47.2C171.3 63 161.7 79 154.2 94.8C146.7 110.7 141.3 126.3 151.3 142C161.3 157.7 186.7 173.3 200.7 189.2C214.7 205 217.3 221 203.5 236.8C189.7 252.7 159.3 268.3 145.7 284.2C132 300 135 316 135.8 331.8C136.7 347.7 135.3 363.3 138.2 379C141 394.7 148 410.3 148.3 426.2C148.7 442 142.3 458 139.3 473.8C136.3 489.7 136.7 505.3 144.7 521C152.7 536.7 168.3 552.3 173.5 568.2C178.7 584 173.3 600 178.2 615.8C183 631.7 198 647.3 203.5 663.2C209 679 205 695 191.5 710.8C178 726.7 155 742.3 149.8 758C144.7 773.7 157.3 789.3 167.3 805.2C177.3 821 184.7 837 183 852.8C181.3 868.7 170.7 884.3 165.3 892.2L160 900L0 900L0 892.2C0 884.3 0 868.7 0 852.8C0 837 0 821 0 805.2C0 789.3 0 773.7 0 758C0 742.3 0 726.7 0 710.8C0 695 0 679 0 663.2C0 647.3 0 631.7 0 615.8C0 600 0 584 0 568.2C0 552.3 0 536.7 0 521C0 505.3 0 489.7 0 473.8C0 458 0 442 0 426.2C0 410.3 0 394.7 0 379C0 363.3 0 347.7 0 331.8C0 316 0 300 0 284.2C0 268.3 0 252.7 0 236.8C0 221 0 205 0 189.2C0 173.3 0 157.7 0 142C0 126.3 0 110.7 0 94.8C0 79 0 63 0 47.2C0 31.3 0 15.7 0 7.8L0 0Z" fill="#FFFFFF" stroke-linecap="round" stroke-linejoin="miter"></path></svg>